<svg width="32" height="32" viewBox="0 0 32 32" fill="none" xmlns="http://www.w3.org/2000/svg">
<path d="M1.59522 30.3884C2.03574 30.8289 2.47625 31.0492 3.13702 31.0492C3.7978 31.0492 4.23831 30.8289 4.67883 30.3884L16.3525 18.7148L28.0261 30.3884C28.4666 30.8289 29.1274 31.0492 29.5679 31.0492C30.0084 31.0492 30.6692 30.8289 31.1097 30.3884C31.9908 29.5074 31.9908 28.1859 31.1097 27.3048L19.4361 15.6312L31.1097 3.95751C31.9908 3.07648 31.9908 1.75494 31.1097 0.873908C30.2287 -0.00712284 28.9072 -0.00712284 28.0261 0.873908L16.3525 12.5476L4.67883 0.873908C3.7978 -0.00712284 2.47625 -0.00712284 1.59522 0.873908C0.714191 1.75494 0.714191 3.07648 1.59522 3.95751L13.2689 15.6312L1.59522 27.3048C0.714191 28.1859 0.714191 29.5074 1.59522 30.3884Z" fill="black"/>
</svg>
