<svg width="21" height="21" viewBox="0 0 21 21" fill="none" xmlns="http://www.w3.org/2000/svg">
<path d="M0.45 20.55C0.75 20.85 1.05 21 1.5 21C1.95 21 2.25 20.85 2.55 20.55L10.5 12.6L18.45 20.55C18.75 20.85 19.2 21 19.5 21C19.8 21 20.25 20.85 20.55 20.55C21.15 19.95 21.15 19.05 20.55 18.45L12.6 10.5L20.55 2.55C21.15 1.95 21.15 1.05 20.55 0.45C19.95 -0.15 19.05 -0.15 18.45 0.45L10.5 8.4L2.55 0.45C1.95 -0.15 1.05 -0.15 0.45 0.45C-0.15 1.05 -0.15 1.95 0.45 2.55L8.4 10.5L0.45 18.45C-0.15 19.05 -0.15 19.95 0.45 20.55Z" fill="white"/>
</svg>
