<svg width="69" height="69" viewBox="0 0 69 69" fill="none" xmlns="http://www.w3.org/2000/svg">
<path d="M7.84234 59.7024C14.4061 53.8858 12 48.1143 12 48.1143L27.8 52.6285C27.8 52.6285 19.5321 61.0274 8.80163 61.6345L7.84234 59.7024Z" fill="white"/>
<path d="M8.61429 61.657C9.23758 61.657 9.74286 61.1518 9.74286 60.5285C9.74286 59.9052 9.23758 59.3999 8.61429 59.3999C7.99099 59.3999 7.48571 59.9052 7.48571 60.5285C7.48571 61.1518 7.99099 61.657 8.61429 61.657Z" fill="white"/>
<path d="M34.5714 7.48572C18.3651 7.48572 5.22857 18.6021 5.22857 32.3143C5.22857 46.0264 18.3651 57.1429 34.5714 57.1429C50.7777 57.1429 63.9143 46.0264 63.9143 32.3143C63.9143 18.6021 50.7777 7.48572 34.5714 7.48572ZM36.8286 45.8571H32.3143V30.0571H36.8286V45.8571ZM34.5714 24.4143C32.7025 24.4143 31.1857 22.8975 31.1857 21.0286C31.1857 19.1597 32.7025 17.6429 34.5714 17.6429C36.4403 17.6429 37.9571 19.1597 37.9571 21.0286C37.9571 22.8975 36.4403 24.4143 34.5714 24.4143Z" fill="white"/>
</svg>
