<svg width="335" height="335" viewBox="0 0 335 335" fill="none" xmlns="http://www.w3.org/2000/svg">
<path d="M262.933 179.546L214.358 161.18C213.56 160.878 212.83 160.422 212.208 159.838C211.586 159.253 211.086 158.552 210.736 157.774C210.385 156.997 210.191 156.157 210.166 155.305C210.14 154.452 210.282 153.602 210.585 152.805L236.004 85.5766C236.614 83.9649 237.838 82.6612 239.409 81.9523C240.979 81.2434 242.767 81.1874 244.379 81.7964L275.188 93.4441L289.734 127.038L271.308 175.793C270.693 177.4 269.466 178.697 267.896 179.401C266.326 180.104 264.541 180.157 262.933 179.546Z" fill="#F5F5F5"/>
<path d="M275.188 93.4441L268.029 112.365C267.747 113.107 267.615 113.898 267.64 114.691C267.664 115.485 267.844 116.266 268.171 116.99C268.497 117.713 268.962 118.366 269.541 118.91C270.119 119.453 270.799 119.878 271.542 120.159L289.735 127.038L275.188 93.4441Z" fill="#EBEBEB"/>
<path d="M267.648 114.121C267.648 114.121 265.678 118.623 270.319 122.136C270.495 122.267 270.677 122.387 270.867 122.496C273.084 123.832 287.671 132.515 287.804 132.161L289.728 127.071L271.535 120.192C271.535 120.192 267.06 118.289 267.648 114.121Z" fill="#E0E0E0"/>
<path d="M264.248 110.054C264.155 110.301 259.052 108.592 252.848 106.247C246.643 103.903 241.688 101.799 241.781 101.572C241.875 101.345 246.977 103.035 253.182 105.379C259.386 107.723 264.342 109.794 264.248 110.054Z" fill="#E0E0E0"/>
<path d="M274.714 126.243C274.62 126.484 266.272 123.572 256.06 119.692C245.848 115.811 237.64 112.499 237.734 112.251C237.827 112.004 246.176 114.923 256.394 118.81C266.613 122.697 274.787 125.996 274.714 126.243Z" fill="#E0E0E0"/>
<path d="M274.667 136.435C274.574 136.675 265.477 133.463 254.344 129.249C243.21 125.034 234.261 121.428 234.354 121.187C234.448 120.947 243.544 124.16 254.678 128.374C265.811 132.588 274.787 136.188 274.667 136.435Z" fill="#E0E0E0"/>
<path d="M271.481 144.864C271.388 145.104 262.292 141.892 251.158 137.677C240.025 133.463 231.075 129.83 231.169 129.616C231.262 129.402 240.359 132.588 251.492 136.796C262.625 141.003 271.575 144.617 271.481 144.864Z" fill="#E0E0E0"/>
<path d="M268.296 153.292C268.202 153.533 259.099 150.32 247.972 146.106C236.846 141.892 227.889 138.285 227.976 138.045C228.063 137.804 237.166 141.017 248.306 145.224C259.446 149.432 268.383 153.045 268.296 153.292Z" fill="#E0E0E0"/>
<path d="M265.104 161.721C265.017 161.961 255.914 158.742 244.787 154.534C233.66 150.327 224.697 146.714 224.791 146.473C224.884 146.233 233.981 149.445 245.114 153.653C256.248 157.86 265.197 161.474 265.104 161.721Z" fill="#E0E0E0"/>
<path d="M100.985 109.752L36.9484 132.177C34.7343 132.952 33.568 135.376 34.3434 137.59L66.4723 229.336C67.2477 231.55 69.6711 232.716 71.8852 231.941L135.921 209.515C138.135 208.74 139.302 206.317 138.526 204.103L106.397 112.357C105.622 110.143 103.199 108.976 100.985 109.752Z" fill="#EBEBEB"/>
<path d="M101.806 115.454L39.8623 137.146L71.7065 228.079L133.65 206.387L101.806 115.454Z" fill="#E0E0E0"/>
<path d="M100.697 115.026L38.7534 136.719L69.9906 225.918L131.934 204.226L100.697 115.026Z" fill="#FAFAFA"/>
<path d="M131.923 204.224L100.606 115.056L100.72 115.11L38.788 136.809L38.8481 136.689C50.5225 170.189 61.3888 201.132 70.0645 225.89L69.9643 225.843L131.93 204.224L70.0111 226.003H69.9376V225.93C61.2552 201.172 50.4224 170.229 38.6812 136.736V136.642H38.768L100.706 114.963H100.793V115.043L131.923 204.224Z" fill="#E0E0E0"/>
<path d="M109.957 211.918C109.957 211.918 123.748 200.284 126.139 188.168C124.755 190.089 122.997 191.709 120.97 192.932C118.942 194.154 116.689 194.953 114.344 195.281C114.344 195.281 114.071 207.971 109.957 211.918Z" fill="#E0E0E0"/>
<path d="M59.9224 156.595L56.6636 157.736C55.473 158.153 54.8458 159.456 55.2627 160.646L56.404 163.905C56.8209 165.096 58.1241 165.723 59.3147 165.306L62.5735 164.165C63.7641 163.748 64.3913 162.445 63.9744 161.254L62.8331 157.995C62.4162 156.805 61.113 156.178 59.9224 156.595Z" fill="#EBEBEB"/>
<path d="M59.5256 162.208C59.5029 162.22 59.4777 162.226 59.4521 162.226C59.4265 162.226 59.4014 162.22 59.3786 162.208L57.8826 161.34C57.8464 161.312 57.8215 161.272 57.8126 161.228C57.8038 161.183 57.8116 161.136 57.8346 161.097C57.8575 161.058 57.8941 161.028 57.9374 161.014C57.9807 160.999 58.0277 161.001 58.0696 161.019L59.4054 161.781L60.9815 158.441C61.0045 158.397 61.0433 158.363 61.0903 158.345C61.1372 158.328 61.189 158.329 61.2353 158.348C61.2579 158.359 61.2782 158.374 61.2948 158.392C61.3115 158.411 61.3243 158.433 61.3324 158.456C61.3405 158.48 61.3437 158.505 61.342 158.53C61.3402 158.555 61.3335 158.579 61.3221 158.602L59.6591 162.155C59.642 162.173 59.6212 162.187 59.5981 162.196C59.5751 162.205 59.5504 162.209 59.5256 162.208Z" fill="white"/>
<path d="M102.296 142.786C102.296 142.84 94.2814 145.705 84.3368 149.185C74.3921 152.664 66.3042 155.443 66.3042 155.396C66.3042 155.349 74.3187 152.477 84.27 148.998C94.2213 145.518 102.283 142.74 102.296 142.786Z" fill="#E0E0E0"/>
<path d="M83.4086 155.623C83.4086 155.623 83.2015 155.717 82.8275 155.863L81.2113 156.465C79.8755 156.959 77.952 157.633 75.8683 158.368C73.7845 159.103 71.861 159.757 70.5253 160.218L68.889 160.759C68.6909 160.832 68.4878 160.89 68.2812 160.933C68.468 160.835 68.6623 160.752 68.8623 160.686L70.4785 160.091C71.8143 159.59 73.7378 158.916 75.8215 158.181C77.9053 157.446 79.8288 156.799 81.1645 156.331L82.8008 155.79C82.9982 155.717 83.2016 155.661 83.4086 155.623Z" fill="#E0E0E0"/>
<path d="M103.144 145.244C103.144 145.291 95.1299 148.156 85.1786 151.636C75.2273 155.116 67.146 157.901 67.146 157.847C67.146 157.794 75.1605 154.935 85.1185 151.456C95.0764 147.976 103.144 145.191 103.144 145.244Z" fill="#E0E0E0"/>
<path d="M64.5743 169.884L61.3154 171.025C60.1248 171.442 59.4977 172.745 59.9146 173.936L61.0558 177.195C61.4728 178.385 62.7759 179.012 63.9665 178.595L67.2254 177.454C68.416 177.037 69.0431 175.734 68.6262 174.544L67.485 171.285C67.068 170.094 65.7649 169.467 64.5743 169.884Z" fill="#EBEBEB"/>
<path d="M64.1804 175.499C64.1565 175.511 64.1303 175.517 64.1036 175.517C64.077 175.517 64.0507 175.511 64.0268 175.499L62.5375 174.631C62.5159 174.619 62.4969 174.603 62.4818 174.584C62.4666 174.564 62.4556 174.542 62.4493 174.518C62.443 174.495 62.4417 174.47 62.4454 174.445C62.4491 174.421 62.4577 174.398 62.4707 174.377C62.4824 174.355 62.4985 174.336 62.5178 174.321C62.5371 174.306 62.5594 174.295 62.5832 174.289C62.6069 174.283 62.6317 174.281 62.656 174.285C62.6803 174.289 62.7036 174.297 62.7245 174.31L64.0602 175.072L65.6364 171.699C65.6581 171.655 65.6957 171.621 65.7415 171.603C65.7874 171.586 65.8381 171.587 65.8835 171.605C65.9286 171.626 65.9638 171.663 65.9814 171.71C65.9989 171.756 65.9973 171.807 65.977 171.852L64.314 175.412C64.2992 175.435 64.2796 175.455 64.2566 175.47C64.2335 175.485 64.2076 175.495 64.1804 175.499Z" fill="white"/>
<path d="M106.951 156.077C106.951 156.131 98.9365 158.989 88.9852 162.475C79.0339 165.962 70.9526 168.733 70.9526 168.687C70.9526 168.64 78.9671 165.768 88.9184 162.288C98.8697 158.809 106.938 156.03 106.951 156.077Z" fill="#E0E0E0"/>
<path d="M88.0638 168.914C88.0638 168.914 87.8568 169.007 87.4761 169.154L85.8665 169.755C84.5308 170.25 82.6073 170.924 80.5236 171.659C78.4398 172.393 76.5163 173.048 75.1806 173.509L73.5443 174.05C73.3462 174.122 73.1431 174.18 72.9365 174.223C73.1225 174.124 73.3169 174.041 73.5176 173.976L75.1338 173.382C76.4696 172.881 78.393 172.206 80.4768 171.472C82.5606 170.737 84.484 170.089 85.8198 169.622L87.4561 169.081C87.6535 169.008 87.8568 168.952 88.0638 168.914Z" fill="#E0E0E0"/>
<path d="M107.819 158.548C107.819 158.595 99.8047 161.46 89.8534 164.94C79.9021 168.419 71.8208 171.204 71.8208 171.151C71.8208 171.098 79.8353 168.239 89.7866 164.76C99.7379 161.28 107.819 158.482 107.819 158.548Z" fill="#E0E0E0"/>
<path d="M69.2335 183.173L65.9746 184.314C64.784 184.731 64.1568 186.034 64.5738 187.225L65.715 190.484C66.132 191.675 67.4351 192.302 68.6257 191.885L71.8846 190.744C73.0752 190.327 73.7023 189.023 73.2854 187.833L72.1441 184.574C71.7272 183.383 70.424 182.756 69.2335 183.173Z" fill="#EBEBEB"/>
<path d="M68.8354 188.789C68.8115 188.801 68.7852 188.807 68.7586 188.807C68.732 188.807 68.7057 188.801 68.6818 188.789L67.1858 187.935C67.1614 187.924 67.1395 187.909 67.1216 187.889C67.1036 187.87 67.09 187.847 67.0817 187.821C67.0734 187.796 67.0705 187.77 67.0733 187.743C67.076 187.717 67.0844 187.691 67.0977 187.668C67.1111 187.646 67.1292 187.626 67.1508 187.61C67.1724 187.595 67.197 187.584 67.223 187.579C67.249 187.574 67.2758 187.575 67.3016 187.581C67.3274 187.587 67.3517 187.598 67.3728 187.614L68.7085 188.375L70.2847 185.003C70.294 184.979 70.3081 184.958 70.3259 184.94C70.3437 184.922 70.3649 184.908 70.3884 184.899C70.4118 184.889 70.4369 184.885 70.4621 184.885C70.4873 184.886 70.5122 184.891 70.5352 184.902C70.5582 184.912 70.5789 184.927 70.596 184.945C70.6131 184.964 70.6262 184.986 70.6347 185.01C70.6431 185.033 70.6466 185.059 70.645 185.084C70.6434 185.109 70.6367 185.134 70.6253 185.156L68.9623 188.716C68.9296 188.754 68.8848 188.78 68.8354 188.789Z" fill="white"/>
<path d="M111.606 169.368C111.606 169.421 103.592 172.28 93.6405 175.766C83.6892 179.252 75.6079 182.024 75.6079 181.971C75.6079 181.917 83.6224 179.059 93.5804 175.579C103.538 172.099 111.586 169.321 111.606 169.368Z" fill="#E0E0E0"/>
<path d="M92.7185 182.198C92.5289 182.295 92.3325 182.377 92.1307 182.445L90.5145 183.046C89.1787 183.54 87.2619 184.215 85.1715 184.949C83.0811 185.684 81.1643 186.332 79.8285 186.799L78.1922 187.34C77.9938 187.412 77.7908 187.47 77.5845 187.514C77.7704 187.415 77.9649 187.332 78.1655 187.267L79.7818 186.666C81.1175 186.172 83.041 185.497 85.1248 184.762C87.2085 184.028 89.132 183.38 90.4677 182.912L92.0973 182.371C92.3009 182.302 92.5083 182.244 92.7185 182.198Z" fill="#E0E0E0"/>
<path d="M112.494 171.826C112.494 171.872 104.48 174.738 94.5287 178.217C84.5774 181.697 76.4961 184.482 76.4961 184.428C76.4961 184.375 84.5106 181.517 94.4619 178.03C104.413 174.544 112.448 171.772 112.494 171.826Z" fill="#E0E0E0"/>
<path d="M73.8853 196.462L70.6265 197.604C69.4359 198.021 68.8087 199.324 69.2256 200.514L70.3669 203.773C70.7838 204.964 72.087 205.591 73.2776 205.174L76.5364 204.033C77.727 203.616 78.3542 202.313 77.9372 201.122L76.796 197.863C76.3791 196.673 75.0759 196.046 73.8853 196.462Z" fill="#EBEBEB"/>
<path d="M73.4839 202.08C73.4607 202.09 73.4357 202.095 73.4104 202.095C73.3852 202.095 73.3602 202.09 73.337 202.08L71.8409 201.212C71.7984 201.186 71.7678 201.145 71.7559 201.097C71.744 201.049 71.7518 200.998 71.7775 200.955C71.8032 200.913 71.8447 200.882 71.8929 200.87C71.9411 200.858 71.9921 200.866 72.0346 200.892L73.3703 201.653L74.9465 198.314C74.9669 198.268 75.0044 198.233 75.0507 198.216C75.0971 198.198 75.1485 198.2 75.1936 198.22C75.2376 198.242 75.2717 198.279 75.2891 198.325C75.3064 198.371 75.3057 198.422 75.2871 198.467L73.6175 202.027C73.5814 202.061 73.5336 202.08 73.4839 202.08Z" fill="white"/>
<path d="M116.261 182.659C116.261 182.712 108.247 185.571 98.2953 189.05C88.344 192.53 80.2627 195.315 80.2627 195.261C80.2627 195.208 88.2772 192.349 98.2285 188.87C108.18 185.39 116.241 182.592 116.261 182.659Z" fill="#E0E0E0"/>
<path d="M97.3671 195.488C97.1811 195.588 96.9866 195.67 96.786 195.735L95.1698 196.336C93.834 196.831 91.9105 197.505 89.8268 198.24C87.743 198.975 85.8195 199.622 84.4838 200.09L82.8475 200.631C82.4601 200.751 82.2397 200.811 82.2397 200.805C82.4257 200.705 82.6202 200.622 82.8208 200.557L84.437 199.956C85.7728 199.462 87.6963 198.788 89.78 198.053C91.8638 197.318 93.7873 196.67 95.123 196.203L96.7593 195.662C96.9577 195.59 97.1608 195.532 97.3671 195.488Z" fill="#E0E0E0"/>
<path d="M117.123 185.116C117.123 185.163 109.108 188.028 99.1571 191.508C89.2058 194.987 81.1245 197.766 81.1245 197.719C81.1245 197.672 89.139 194.807 99.0903 191.321C109.042 187.834 117.103 185.063 117.123 185.116Z" fill="#E0E0E0"/>
<path d="M45.7671 128.027L47.3967 132.702C47.8525 134.003 48.8063 135.07 50.0486 135.669C51.2909 136.268 52.7201 136.349 54.022 135.894L88.2839 123.872C88.928 123.647 89.5215 123.298 90.0303 122.843C90.5391 122.389 90.9533 121.838 91.2492 121.224C91.5451 120.609 91.7169 119.942 91.7547 119.261C91.7925 118.579 91.6957 117.897 91.4696 117.254L89.84 112.579L45.7671 128.027Z" fill="#E0E0E0"/>
<path d="M68.2612 121.695C67.3511 122.015 66.3664 122.058 65.4318 121.819C64.4972 121.579 63.6547 121.067 63.011 120.348C62.3674 119.63 61.9514 118.736 61.8159 117.781C61.6804 116.825 61.8314 115.851 62.2497 114.982C62.668 114.113 63.3349 113.387 64.166 112.897C64.997 112.406 65.9548 112.174 66.9182 112.228C67.8815 112.283 68.807 112.622 69.5775 113.202C70.348 113.783 70.9289 114.579 71.2466 115.49C71.6716 116.709 71.596 118.047 71.0364 119.21C70.4768 120.373 69.4788 121.267 68.2612 121.695ZM65.6565 114.262C65.0952 114.458 64.6046 114.816 64.2468 115.291C63.889 115.765 63.6801 116.336 63.6466 116.929C63.613 117.523 63.7562 118.113 64.0582 118.625C64.3602 119.138 64.8073 119.549 65.343 119.807C65.8786 120.065 66.4788 120.158 67.0675 120.075C67.6563 119.992 68.2071 119.736 68.6503 119.34C69.0936 118.943 69.4093 118.424 69.5576 117.849C69.7059 117.273 69.6801 116.666 69.4834 116.105C69.22 115.353 68.669 114.737 67.9514 114.391C67.2339 114.046 66.4085 113.999 65.6565 114.262Z" fill="#E0E0E0"/>
<path d="M95.6437 133.837C95.6437 133.924 86.6408 137.176 75.4673 141.083C64.2938 144.99 55.2107 148.096 55.1773 148.009C55.1439 147.922 64.1803 144.67 75.3538 140.763C86.5273 136.856 95.6104 133.723 95.6437 133.837Z" fill="#E0E0E0"/>
<path d="M84.0697 135.473C84.0697 135.56 80.1293 137.036 75.1937 138.766C70.2581 140.496 66.2309 141.851 66.1975 141.731C66.1641 141.611 70.1446 140.168 75.0802 138.439C80.0158 136.709 84.043 135.386 84.0697 135.473Z" fill="#E0E0E0"/>
<path d="M262.098 270.804C264.557 269.65 267.321 269.315 269.985 269.849C271.414 270.083 272.91 270.517 273.879 271.586C274.847 272.654 275.041 274.551 273.919 275.473C273.194 275.965 272.319 276.185 271.448 276.094C269.357 276.094 267.046 275.7 265.383 276.955C264.428 277.67 263.801 278.859 262.665 279.213C262.094 279.346 261.494 279.287 260.96 279.046C260.425 278.805 259.985 278.394 259.707 277.877C259.167 276.833 259.047 275.621 259.373 274.491C259.513 273.708 259.831 272.969 260.304 272.329C260.777 271.69 261.39 271.168 262.098 270.804Z" fill="#FF725E"/>
<path d="M256.568 260.199C258.037 262.289 260.889 261.601 262.211 260.319C263.533 259.037 264.088 257.187 264.595 255.423C265.757 251.383 266.933 247.148 266.071 243.034C265.857 241.798 265.31 240.644 264.489 239.695C264.07 239.224 263.535 238.872 262.937 238.672C262.339 238.473 261.7 238.434 261.082 238.56C259.64 238.94 258.751 240.349 258.104 241.685C256.199 245.645 255.202 249.98 255.185 254.375C255.185 256.418 255.419 258.556 256.568 260.245" fill="#FF725E"/>
<path d="M252.54 263.204C253.295 262.219 253.798 261.065 254.005 259.842C254.212 258.618 254.117 257.363 253.729 256.185C252.922 253.838 251.485 251.758 249.575 250.174C247.404 248.242 244.876 246.751 242.135 245.786C241.076 245.358 239.936 245.164 238.795 245.218C238.225 245.25 237.671 245.422 237.182 245.718C236.693 246.013 236.284 246.424 235.99 246.914C235.202 248.411 235.99 250.22 236.765 251.696C238.195 254.302 239.83 256.79 241.654 259.137C243.117 261.027 244.793 262.89 247.03 263.745C249.268 264.6 251.578 264.493 252.761 262.95" fill="#FF725E"/>
<path d="M256.474 291.796C256.548 291.484 256.59 291.167 256.601 290.847C256.675 290.179 256.755 289.284 256.855 288.249C256.983 286.969 257.179 285.696 257.443 284.436C257.782 282.903 258.244 281.4 258.825 279.941C259.396 278.484 260.169 277.114 261.123 275.874C261.9 274.862 262.892 274.036 264.028 273.456C264.797 273.074 265.622 272.817 266.472 272.694C266.792 272.683 267.11 272.638 267.421 272.561C267.099 272.526 266.774 272.526 266.452 272.561C265.571 272.632 264.71 272.858 263.908 273.229C262.711 273.791 261.662 274.623 260.842 275.66C259.85 276.92 259.049 278.32 258.465 279.814C257.872 281.293 257.412 282.822 257.089 284.382C256.843 285.658 256.673 286.947 256.581 288.243C256.494 289.345 256.468 290.246 256.454 290.854C256.424 291.168 256.431 291.484 256.474 291.796Z" fill="#263238"/>
<path d="M256.648 289.799C256.668 289.652 256.668 289.504 256.648 289.358V288.116C256.648 287.02 256.648 285.444 256.701 283.44C256.801 279.52 257.135 275.306 257.79 269.362C258.404 263.772 259.232 257.267 260.107 253.039C260.294 252.077 260.481 251.209 260.662 250.454C260.842 249.7 260.976 249.038 261.116 248.511C261.256 247.983 261.33 247.602 261.41 247.282C261.446 247.137 261.473 246.99 261.49 246.841C261.423 246.973 261.371 247.112 261.336 247.255C261.236 247.576 261.116 247.976 260.969 248.471C260.822 248.965 260.635 249.646 260.448 250.401C260.261 251.156 260.041 252.017 259.834 252.979C258.763 257.986 257.958 263.047 257.423 268.14C256.755 274.097 256.474 279.493 256.454 283.447C256.454 285.411 256.454 287 256.521 288.122C256.521 288.637 256.574 289.057 256.594 289.385C256.6 289.524 256.618 289.662 256.648 289.799Z" fill="#263238"/>
<path d="M256.675 279.34C256.712 278.895 256.712 278.448 256.675 278.004C256.599 276.807 256.463 275.614 256.267 274.431C255.981 272.673 255.593 270.934 255.105 269.221C254.54 267.113 253.812 265.052 252.928 263.057C251.416 259.379 249.251 256.005 246.536 253.099C246.063 252.602 245.559 252.136 245.027 251.703C244.8 251.503 244.593 251.309 244.359 251.156L243.778 250.755C243.428 250.486 243.055 250.249 242.663 250.047C243.945 251.049 245.161 252.133 246.303 253.293C248.935 256.219 251.046 259.576 252.54 263.217C253.406 265.201 254.138 267.24 254.731 269.322C255.234 271.017 255.646 272.738 255.967 274.478C256.24 275.967 256.401 277.149 256.494 278.017C256.522 278.462 256.582 278.904 256.675 279.34Z" fill="#263238"/>
<path d="M246.563 297.793L247.612 312.152H266.065L267.107 297.793H246.563Z" fill="#263238"/>
<path d="M269.318 292.129H244.787V297.793H269.318V292.129Z" fill="#263238"/>
<path d="M244.787 311.605V313.168H245.935H268.904V311.605H244.787Z" fill="#455A64"/>
<path d="M247.064 315.932L245.935 313.167H268.028L266.706 315.932H247.064Z" fill="#455A64"/>
<path d="M266.773 302.482C266.773 302.482 266.773 302.535 266.686 302.615L266.412 302.983L265.337 304.358L265.29 304.418L265.243 304.352L262.605 300.705H262.765L260.161 304.385L260.081 304.499L259.987 304.392L256.908 300.718H257.082L256.915 300.932L254.157 304.385L254.07 304.505L253.983 304.385C253.048 303.049 252.173 301.82 251.378 300.705H251.532L248.333 304.352L248.273 304.418L248.226 304.345C247.805 303.637 247.471 303.069 247.224 302.662L246.97 302.214C246.936 302.165 246.91 302.111 246.89 302.054C246.89 302.054 246.93 302.094 246.997 302.194L247.284 302.629L248.333 304.278H248.233L251.385 300.585L251.465 300.491L251.539 300.592L254.163 304.258H253.983L256.755 300.805L256.928 300.592L257.015 300.478L257.102 300.585L260.181 304.265H260.007L262.632 300.598L262.705 300.491L262.785 300.598C263.821 302.088 264.709 303.35 265.37 304.292H265.27L266.392 302.956L266.693 302.609L266.773 302.482Z" fill="#E0E0E0"/>
<path d="M267.367 297.693C267.367 297.76 262.746 297.813 257.042 297.813C251.338 297.813 246.717 297.76 246.717 297.693C246.717 297.626 251.338 297.579 257.042 297.579C262.746 297.579 267.367 297.633 267.367 297.693Z" fill="#455A64"/>
<path d="M268.302 313.328C268.302 313.388 263.273 313.441 257.082 313.441C250.891 313.441 245.862 313.388 245.862 313.328C245.862 313.268 250.884 313.208 257.082 313.208C263.28 313.208 268.302 313.261 268.302 313.328Z" fill="#263238"/>
<path d="M86.3137 267.512C86.2603 267.572 85.8395 267.318 85.372 266.944C84.9045 266.57 84.5639 266.216 84.6173 266.149C84.6708 266.082 85.0848 266.343 85.5524 266.717C86.0199 267.091 86.3605 267.445 86.3137 267.512Z" fill="#263238"/>
<path d="M99.1368 248.384C99.3186 246.602 99.1715 244.802 98.7027 243.074C98.1417 241.371 96.8326 239.815 95.0828 239.448C93.0792 239.034 91.0355 240.296 89.9135 242.006C88.7915 243.715 88.4108 245.786 88.0768 247.796C85.7982 261.687 84.9589 275.776 85.5723 289.839L93.7471 290.987C97.3068 276.314 98.4689 263.484 99.1368 248.384Z" fill="#455A64"/>
<path d="M93.914 239.361L93.8739 239.494L93.7403 239.862L93.1927 241.278C93.0791 241.585 92.9255 241.946 92.8053 242.299L92.4113 243.535L91.9504 244.958L91.5297 246.581C90.8434 249.261 90.3149 251.98 89.9468 254.722C89.506 257.794 89.2188 261.2 88.9851 264.78C88.571 271.946 88.5042 278.451 88.3172 283.153C88.2304 285.511 88.1502 287.414 88.0634 288.723C88.0167 289.391 87.9833 289.865 87.9565 290.239C87.9565 290.393 87.9565 290.527 87.9565 290.627C87.9565 290.727 87.9565 290.76 87.9565 290.76C87.9565 290.76 87.9565 290.72 87.9565 290.627C87.9565 290.533 87.9565 290.393 87.9565 290.233C87.9565 289.865 87.9565 289.358 88.0033 288.717C88.0567 287.381 88.1035 285.504 88.1636 283.147C88.2972 278.471 88.3306 271.94 88.7513 264.767C88.9784 261.18 89.2789 257.767 89.7331 254.682C90.1161 251.948 90.6671 249.24 91.3827 246.574L91.8235 244.951C91.9972 244.452 92.1575 243.978 92.3044 243.528L92.7318 242.293C92.8587 241.919 93.019 241.585 93.1392 241.278L93.7403 239.888C93.8027 239.742 93.8561 239.621 93.9006 239.528C93.8958 239.472 93.9003 239.415 93.914 239.361Z" fill="#263238"/>
<path d="M94.6686 239.394C95.0946 239.898 95.4332 240.469 95.6704 241.084C96.2954 242.773 96.5483 244.578 96.4117 246.374C96.198 250.895 95.7906 257.12 95.2563 263.999C94.722 270.878 94.1142 277.089 93.6333 281.584C93.3862 283.828 93.1792 285.644 93.0256 286.927C92.9454 287.535 92.8853 288.015 92.8386 288.369L92.7852 288.743C92.7883 288.786 92.7883 288.828 92.7852 288.87C92.7852 288.87 92.7852 288.83 92.7852 288.743C92.7852 288.657 92.7852 288.516 92.7852 288.363C92.7852 288.009 92.8586 287.528 92.912 286.913C93.0389 285.631 93.2126 283.821 93.4263 281.57C93.8537 277.069 94.4214 270.884 94.9624 263.979C95.5034 257.073 95.9375 250.882 96.2047 246.374C96.3501 244.599 96.1226 242.813 95.5368 241.131C95.2993 240.527 95.0087 239.946 94.6686 239.394Z" fill="#263238"/>
<path d="M100.339 260.559C99.8026 260.52 99.2777 260.384 98.7896 260.158C98.2708 260.023 97.7801 259.797 97.3403 259.49C97.8774 259.525 98.4031 259.661 98.8898 259.891C99.4092 260.025 99.9001 260.251 100.339 260.559Z" fill="#263238"/>
<path d="M101.328 252.224C100.885 252.578 100.386 252.856 99.8516 253.046C99.3552 253.321 98.8153 253.508 98.2554 253.6C99.1919 252.967 100.231 252.501 101.328 252.224Z" fill="#263238"/>
<path d="M100.813 245.418C100.006 245.564 99.1751 245.507 98.3955 245.251C98.7907 245.138 99.2066 245.118 99.611 245.191C100.024 245.173 100.435 245.251 100.813 245.418Z" fill="#263238"/>
<path d="M92.3711 241.064C92.3043 241.104 91.9436 240.657 91.5763 240.069C91.309 239.729 91.1197 239.335 91.022 238.913C91.0888 238.873 91.4494 239.314 91.8234 239.909C92.1974 240.503 92.4579 241.017 92.3711 241.064Z" fill="#263238"/>
<path d="M89.5861 245.178C89.2142 245.312 88.8154 245.353 88.424 245.298C88.0304 245.336 87.6336 245.276 87.2686 245.125C87.6405 244.991 88.0393 244.95 88.4307 245.004C88.8242 244.967 89.221 245.026 89.5861 245.178Z" fill="#263238"/>
<path d="M87.5827 253.386C87.1552 253.369 86.7372 253.255 86.3605 253.052C85.9482 252.935 85.5671 252.728 85.2451 252.445C85.6726 252.462 86.0905 252.576 86.4673 252.779C86.8796 252.896 87.2607 253.103 87.5827 253.386Z" fill="#263238"/>
<path d="M87.3686 260.326C87.3686 260.406 86.9211 260.573 86.3267 260.693C85.7323 260.813 85.2448 260.86 85.2247 260.78C85.2047 260.7 85.6789 260.533 86.2666 260.412C86.6211 260.293 86.9998 260.263 87.3686 260.326Z" fill="#263238"/>
<path d="M86.4472 271.653C86.4472 271.733 85.9663 271.886 85.3385 272C84.9635 272.111 84.5669 272.13 84.1831 272.053C84.52 271.852 84.9002 271.736 85.2918 271.713C85.6659 271.597 86.063 271.576 86.4472 271.653Z" fill="#263238"/>
<path d="M85.7791 277.904C85.8192 277.971 85.4051 278.265 84.8574 278.572C84.3098 278.879 83.8356 279.039 83.8022 278.966C83.7688 278.892 84.1762 278.605 84.7239 278.298C85.2715 277.991 85.7791 277.83 85.7791 277.904Z" fill="#263238"/>
<path d="M90.9018 284.997C90.8351 285.037 90.4744 284.543 90.1004 283.888C89.8299 283.514 89.6431 283.085 89.5527 282.632C89.6195 282.592 89.9802 283.087 90.3542 283.741C90.6247 284.115 90.8115 284.544 90.9018 284.997Z" fill="#263238"/>
<path d="M92.3778 273.209C92.4313 273.262 92.0305 273.75 91.4829 274.291C90.9352 274.832 90.441 275.219 90.3809 275.159C90.3208 275.099 90.7282 274.618 91.2758 274.077C91.8235 273.536 92.3177 273.149 92.3778 273.209Z" fill="#263238"/>
<path d="M92.0505 267.018C91.9904 267.078 91.623 266.77 91.2223 266.35C90.8216 265.929 90.5544 265.521 90.6079 265.468C90.6613 265.415 91.0353 265.715 91.436 266.136C91.8368 266.557 92.1106 266.964 92.0505 267.018Z" fill="#263238"/>
<path d="M93.0659 259.117C93.126 259.17 92.792 259.644 92.3178 260.165C91.8437 260.686 91.4162 261.08 91.3561 261.027C91.296 260.973 91.6299 260.499 92.0975 259.971C92.565 259.444 93.0058 259.063 93.0659 259.117Z" fill="#263238"/>
<path d="M93.6333 253.386C93.5732 253.446 93.1124 253.079 92.5915 252.571C92.0705 252.064 91.7032 251.603 91.7566 251.543C91.8101 251.483 92.2776 251.85 92.7985 252.364C93.3194 252.879 93.6868 253.326 93.6333 253.386Z" fill="#263238"/>
<path d="M94.7555 245.626C94.6671 246.047 94.487 246.444 94.2279 246.788C93.874 247.389 93.5267 247.843 93.4599 247.803C93.3931 247.763 93.6202 247.242 93.9808 246.641C94.3415 246.04 94.6821 245.585 94.7555 245.626Z" fill="#263238"/>
<path d="M96.8594 238.439C96.9328 238.479 96.7258 239 96.3985 239.601C96.0713 240.202 95.7307 240.663 95.6772 240.63C95.7408 240.213 95.8984 239.815 96.1381 239.468C96.4653 238.86 96.7859 238.406 96.8594 238.439Z" fill="#263238"/>
<path d="M99.2501 241.705C99.2835 241.779 98.9562 242.006 98.5154 242.219C98.0746 242.433 97.6939 242.54 97.6605 242.467C97.6272 242.393 97.9544 242.166 98.3952 241.952C98.836 241.739 99.2167 241.632 99.2501 241.705Z" fill="#263238"/>
<path d="M99.3038 267.512C98.1944 267.431 97.1437 266.982 96.3184 266.236C96.8384 266.393 97.3417 266.602 97.8211 266.857C98.3364 267.024 98.8332 267.243 99.3038 267.512Z" fill="#263238"/>
<path d="M98.3287 272.975C98.3287 273.055 97.8545 273.215 97.2267 273.335C96.8536 273.455 96.4566 273.48 96.0713 273.409C96.4054 273.204 96.7828 273.081 97.1733 273.048C97.8011 272.928 98.3153 272.895 98.3287 272.975Z" fill="#263238"/>
<path d="M97.133 282.345C97.0863 282.412 96.4652 281.978 95.8908 281.257C95.5083 280.845 95.2391 280.341 95.1094 279.794C95.4826 280.191 95.8201 280.62 96.1179 281.076C96.4945 281.467 96.8343 281.892 97.133 282.345Z" fill="#263238"/>
<path d="M83.9827 286.633C83.9292 286.573 84.2632 286.199 84.724 285.805C85.1848 285.411 85.6056 285.137 85.659 285.204C85.7125 285.27 85.3785 285.631 84.9177 286.032C84.4569 286.433 84.0361 286.693 83.9827 286.633Z" fill="#263238"/>
<path d="M80.2024 266.183C79.6681 264.52 78.673 262.583 76.9298 262.556C76.4104 262.584 75.9082 262.752 75.4758 263.041C75.0433 263.33 74.6966 263.73 74.4721 264.199C73.9923 265.126 73.7621 266.162 73.8042 267.205C74.0195 274.607 75.2809 281.942 77.551 288.991H83.9425C83.8651 281.242 82.6038 273.55 80.2024 266.183Z" fill="#455A64"/>
<path d="M68.6548 255.717C68.3387 254.159 67.5085 252.753 66.2974 251.724C65.0863 250.694 63.5645 250.101 61.9761 250.04C59.151 250.535 58.0557 253.313 57.7218 256.158C57.3878 259.003 58.2694 261.835 59.1443 264.567C61.9405 273.329 64.7411 282.094 67.5462 290.861L75.4939 289.992C73.0094 278.251 71.5668 267.365 68.6548 255.717Z" fill="#455A64"/>
<path d="M76.9298 262.556C76.7232 262.84 76.5422 263.142 76.3888 263.458C76.0594 264.361 75.9562 265.331 76.0883 266.283C76.2085 267.498 76.3487 268.954 76.5558 270.557C76.7628 272.16 77.05 273.897 77.4107 275.753C78.132 279.427 78.9468 282.713 79.461 285.104C79.7215 286.299 79.9219 287.274 80.0421 287.949C80.0955 288.263 80.1423 288.516 80.1757 288.73C80.209 288.944 80.2157 289.004 80.1757 289.004C80.141 288.92 80.1141 288.833 80.0955 288.743L79.9085 287.975C79.7349 287.261 79.5078 286.306 79.2406 285.15C78.6729 282.759 77.8247 279.48 77.1034 275.8C76.7428 273.957 76.4356 272.194 76.2686 270.577C76.1617 269.776 76.0949 269.001 76.0282 268.286C75.9614 267.572 75.8946 266.897 75.8612 266.283C75.747 265.303 75.885 264.31 76.2619 263.398C76.4209 263.072 76.6488 262.785 76.9298 262.556Z" fill="#263238"/>
<path d="M62.1231 249.813C61.7689 250.217 61.4473 250.648 61.1613 251.102C60.4299 252.372 60.0152 253.799 59.9525 255.263C59.9193 257.433 60.2511 259.594 60.9343 261.654C61.6021 264.019 62.3969 266.617 63.205 269.335C64.7879 274.785 66.2171 279.714 67.2657 283.313L68.4679 287.561C68.6014 288.042 68.7016 288.423 68.7818 288.717C68.8254 288.849 68.8545 288.985 68.8686 289.124C68.8073 289 68.7581 288.87 68.7217 288.737C68.6348 288.443 68.5079 288.069 68.361 287.588C68.0471 286.566 67.6063 285.13 67.072 283.374L62.9245 269.415C62.1231 266.683 61.3684 264.072 60.6738 261.721C59.9934 259.631 59.6794 257.44 59.7454 255.243C59.8315 253.751 60.2908 252.304 61.0812 251.035C61.3586 250.573 61.7107 250.16 62.1231 249.813Z" fill="#263238"/>
<path d="M73.7912 289.144C73.724 289.021 73.6638 288.894 73.6109 288.763C73.5107 288.503 73.3437 288.136 73.1634 287.641C72.7827 286.666 72.2952 285.23 71.8277 283.427C71.3601 281.624 70.8258 279.42 70.345 277.016C69.8641 274.611 69.3832 271.92 68.8489 269.115C68.3146 266.31 67.6868 263.671 66.9722 261.314C66.3522 259.218 65.5776 257.171 64.6547 255.189C64.0273 253.856 63.311 252.567 62.5108 251.329C62.237 250.888 61.9899 250.561 61.843 250.334C61.7593 250.22 61.6856 250.1 61.6226 249.973C61.7205 250.073 61.8099 250.18 61.8897 250.294C62.0567 250.521 62.3171 250.828 62.6043 251.269C63.449 252.487 64.1971 253.768 64.8417 255.103C65.7997 257.079 66.597 259.129 67.226 261.234C67.9803 263.809 68.6 266.422 69.0827 269.061C69.6103 271.86 70.1045 274.531 70.5587 276.969C71.0128 279.407 71.4937 281.564 71.9746 283.374C72.4555 285.184 72.9029 286.62 73.2502 287.601C73.4105 288.102 73.5641 288.476 73.6509 288.737C73.7129 288.867 73.7599 289.003 73.7912 289.144Z" fill="#263238"/>
<path d="M59.318 263.257C59.318 263.331 58.904 263.504 58.3496 263.638C57.7953 263.772 57.3345 263.818 57.3211 263.738C57.3078 263.658 57.7285 263.491 58.2828 263.358C58.8372 263.224 59.298 263.177 59.318 263.257Z" fill="#263238"/>
<path d="M58.4767 257.834C58.0425 257.956 57.5912 258.006 57.1409 257.981C56.6966 258.044 56.2449 258.03 55.8052 257.941C56.2211 257.743 56.6812 257.655 57.1409 257.687C57.5914 257.622 58.0512 257.672 58.4767 257.834Z" fill="#263238"/>
<path d="M59.3717 252.879C59.3183 252.945 58.8841 252.665 58.41 252.258C57.9358 251.85 57.5818 251.469 57.6352 251.409C57.6887 251.349 58.1161 251.623 58.597 252.031C59.0778 252.438 59.4251 252.819 59.3717 252.879Z" fill="#263238"/>
<path d="M61.7961 248.297C61.8762 248.297 61.8495 248.705 61.8429 249.165C61.8362 249.626 61.8429 250.02 61.7427 250.034C61.6425 250.047 61.5356 249.66 61.549 249.159C61.5623 248.658 61.736 248.277 61.7961 248.297Z" fill="#263238"/>
<path d="M66.745 250.454C66.8118 250.501 66.6181 250.895 66.3109 251.329C66.0037 251.763 65.7032 252.084 65.6431 252.037C65.5829 251.99 65.77 251.603 66.0705 251.162C66.371 250.721 66.6783 250.408 66.745 250.454Z" fill="#263238"/>
<path d="M69.9574 256.058C69.9574 256.138 69.5768 256.372 69.0425 256.592C68.5082 256.812 68.0407 256.926 68.0139 256.853C67.9872 256.779 68.3946 256.539 68.9289 256.325C69.4632 256.111 69.9307 255.964 69.9574 256.058Z" fill="#263238"/>
<path d="M71.9078 261.781C71.5544 262.088 71.1169 262.281 70.6522 262.336C70.207 262.48 69.7303 262.496 69.2764 262.383C69.7049 262.213 70.1541 262.1 70.6121 262.049C71.0316 261.907 71.4667 261.818 71.9078 261.781Z" fill="#263238"/>
<path d="M62.9579 260.152C62.8845 260.152 62.9579 259.731 63.0848 259.263C63.2117 258.796 63.4121 258.442 63.4856 258.469C63.559 258.495 63.4855 258.889 63.3587 259.357C63.2318 259.824 63.0715 260.178 62.9579 260.152Z" fill="#263238"/>
<path d="M64.207 267.365C64.234 266.944 64.3574 266.535 64.5677 266.169C64.8415 265.541 65.122 265.061 65.1955 265.094C65.1685 265.515 65.0451 265.924 64.8348 266.289C64.561 266.917 64.2805 267.411 64.207 267.365Z" fill="#263238"/>
<path d="M61.1216 269.342C60.728 269.332 60.3401 269.246 59.9795 269.088C59.3718 268.894 58.8775 268.72 58.8976 268.64C59.2951 268.589 59.699 268.647 60.0663 268.807C60.6875 269.001 61.155 269.268 61.1216 269.342Z" fill="#263238"/>
<path d="M62.8981 275.219C62.9449 275.286 62.6042 275.606 62.1434 275.94C61.6826 276.274 61.2551 276.488 61.2084 276.428C61.1616 276.368 61.5023 276.034 61.9698 275.7C62.4373 275.366 62.8514 275.152 62.8981 275.219Z" fill="#263238"/>
<path d="M64.3273 281.083C64.3273 281.156 63.9266 281.33 63.3856 281.457C62.8447 281.584 62.3972 281.631 62.3772 281.557C62.3571 281.484 62.7779 281.31 63.3189 281.176C63.8598 281.043 64.3073 281.003 64.3273 281.083Z" fill="#263238"/>
<path d="M72.0678 266.684C72.1078 266.75 71.7472 267.037 71.2262 267.231C70.7053 267.425 70.2378 267.452 70.2244 267.378C70.2111 267.305 70.6252 267.151 71.1194 266.957C71.6136 266.764 72.0277 266.61 72.0678 266.684Z" fill="#263238"/>
<path d="M73.1699 275.8C73.1365 275.873 72.7091 275.747 72.2148 275.513C71.7206 275.279 71.3466 275.032 71.38 274.958C71.4134 274.885 71.8475 275.019 72.3417 275.246C72.836 275.473 73.21 275.727 73.1699 275.8Z" fill="#263238"/>
<path d="M75.1265 282.332C74.6842 282.309 74.2517 282.193 73.8576 281.991C73.1897 281.731 72.6755 281.457 72.7022 281.377C73.1423 281.399 73.5726 281.516 73.9644 281.717C74.6323 281.978 75.1533 282.252 75.1265 282.332Z" fill="#263238"/>
<path d="M64.6413 287.448C64.6013 287.374 65.1222 287.027 65.7233 286.553C66.3244 286.079 66.7919 285.651 66.852 285.711C66.9121 285.771 66.5314 286.286 65.9036 286.78C65.5544 287.117 65.1167 287.349 64.6413 287.448Z" fill="#263238"/>
<path d="M69.7972 284.108C69.7171 284.108 69.6036 283.681 69.4032 283.173C69.2028 282.666 69.0025 282.258 69.0693 282.212C69.136 282.165 69.47 282.512 69.677 283.067C69.8841 283.621 69.8774 284.108 69.7972 284.108Z" fill="#263238"/>
<path d="M68.4148 276.274C68.3681 276.341 68.0342 276.181 67.6668 275.92C67.2995 275.66 67.0457 275.392 67.0925 275.326C67.1392 275.259 67.4731 275.419 67.8405 275.68C68.2078 275.94 68.4816 276.207 68.4148 276.274Z" fill="#263238"/>
<path d="M80.4365 263.972C80.4833 264.039 80.156 264.359 79.7086 264.687C79.2611 265.014 78.8604 265.234 78.8136 265.167C78.7669 265.101 79.0874 264.787 79.5349 264.453C79.9824 264.119 80.4365 263.905 80.4365 263.972Z" fill="#263238"/>
<path d="M82.2728 268.928C82.2728 269.008 81.7719 269.115 81.1441 269.048C80.5163 268.981 80.0421 268.767 80.0621 268.694C80.0822 268.62 80.5764 268.694 81.1775 268.754C81.7786 268.814 82.2661 268.847 82.2728 268.928Z" fill="#263238"/>
<path d="M74.4787 270.043C74.4787 270.116 74.0313 270.283 73.4168 270.323C72.8024 270.363 72.3215 270.263 72.3282 270.183C72.3349 270.103 72.8157 270.076 73.4035 270.036C73.9912 269.996 74.4654 269.963 74.4787 270.043Z" fill="#263238"/>
<path d="M75.1534 265.355C75.1534 265.435 74.6725 265.448 74.1516 265.201C73.6307 264.954 73.3301 264.6 73.3835 264.533C73.437 264.466 73.7976 264.72 74.2718 264.934C74.746 265.148 75.1601 265.274 75.1534 265.355Z" fill="#263238"/>
<path d="M82.941 274.251C82.9009 274.317 82.4134 274.09 81.8524 273.736C81.2913 273.382 80.8773 273.069 80.924 272.975C80.9708 272.881 81.4516 273.142 82.0126 273.489C82.5737 273.837 82.9877 274.184 82.941 274.251Z" fill="#263238"/>
<path d="M101.955 288.156H60.3799V295.522H101.955V288.156Z" fill="#FF725E"/>
<path d="M63.4858 294.066L68.5416 316.086H93.3197L98.8497 294.066H63.4858Z" fill="#FF725E"/>
<path d="M101.935 295.536C101.935 295.616 92.5851 295.683 80.9909 295.683C69.3966 295.683 60.0464 295.616 60.0464 295.536C60.0464 295.455 69.3966 295.389 80.9909 295.389C92.5851 295.389 101.935 295.462 101.935 295.536Z" fill="#263238"/>
<path d="M78.8135 270.203C78.7467 270.243 78.4595 269.916 78.179 269.462C77.8985 269.008 77.7249 268.607 77.7916 268.567C77.8584 268.527 78.1456 268.854 78.4261 269.308C78.7066 269.763 78.8803 270.157 78.8135 270.203Z" fill="#263238"/>
<path d="M78.8269 276.127C78.8069 275.743 78.8826 275.36 79.0473 275.012C79.241 274.418 79.468 273.957 79.5415 273.984C79.5621 274.37 79.4863 274.756 79.3211 275.106C79.1007 275.693 78.907 276.154 78.8269 276.127Z" fill="#263238"/>
<path d="M80.857 282.352C80.7836 282.392 80.4763 281.891 80.1892 281.243C79.9587 280.867 79.8129 280.446 79.7617 280.008C79.8352 279.968 80.1424 280.468 80.4296 281.116C80.66 281.492 80.8059 281.914 80.857 282.352Z" fill="#263238"/>
<path d="M76.469 287.361C76.4089 287.307 76.656 286.927 77.0233 286.499C77.3906 286.072 77.7312 285.778 77.798 285.831C77.8648 285.885 77.611 286.272 77.2437 286.693C76.8764 287.114 76.5291 287.448 76.469 287.361Z" fill="#263238"/>
<path d="M75.5474 278.271C75.5474 278.351 75.1333 278.345 74.6524 278.271C74.1715 278.198 73.7975 278.057 73.8109 277.977C73.8243 277.897 74.225 277.904 74.6992 277.977C75.1734 278.051 75.5607 278.191 75.5474 278.271Z" fill="#263238"/>
<path d="M220.189 237.517H121.597V316.139H220.189V237.517Z" fill="#E0E0E0"/>
<g opacity="0.3">
<path d="M128.777 237.678C140.384 241.818 153.188 242.707 165.643 242.94C168.228 242.987 170.839 242.981 173.337 243.608C175.835 244.236 178.246 245.659 179.528 247.896C180.924 250.334 180.777 253.386 179.983 256.078C179.188 258.769 177.819 261.26 176.83 263.885C175.08 268.529 174.545 273.543 175.274 278.451C175.499 280.542 176.203 282.554 177.331 284.329C177.903 285.21 178.673 285.946 179.58 286.477C180.487 287.008 181.505 287.32 182.554 287.387C186.301 287.441 188.865 283.761 190.722 280.502C198.342 267.144 206.584 251.983 211.459 237.404L128.777 237.678Z" fill="black"/>
</g>
<path d="M155.191 315.719C155.091 315.719 155.018 298.294 155.018 276.802C155.018 255.31 155.091 237.878 155.191 237.878C155.291 237.878 155.365 255.303 155.365 276.802C155.365 298.301 155.285 315.719 155.191 315.719Z" fill="#455A64"/>
<path d="M195.591 179.413C195.297 177.449 189.433 170.971 189.433 170.971C189.433 170.971 186.508 159.209 185.626 155.743C185.332 154.741 184.903 153.784 184.35 152.898C182.277 149.444 179.328 146.598 175.802 144.65L167.687 140.088L165.75 135.774L146.262 125.756L140.979 135.106C140.979 135.106 128.149 139.18 126.452 142.072C124.756 144.964 127.294 184.014 127.294 184.014C127.294 184.014 121.951 206.535 120.796 211.197C119.64 215.858 121.156 221.415 121.156 221.415L130.713 209.427C133.685 205.7 140.204 203.984 144.886 204.05L184.898 204.231L183.288 193.024L215.66 199.288C215.66 199.288 221.224 188.429 221.671 188.215C222.119 188.001 195.591 179.413 195.591 179.413Z" fill="#FF725E"/>
<path d="M145.434 138.746C145.153 138.459 147.691 147.041 150.884 155.783C152.601 160.507 153.476 165.496 153.468 170.523V202.18L172.65 200.878L169.784 180.027C169.784 180.027 167.447 166.576 166.792 161.46C166.191 156.785 164.121 144.095 164.121 144.095C164.121 144.095 153.468 146.927 145.434 138.746Z" fill="white"/>
<path d="M188.004 187.267C187.974 187.106 187.974 186.94 188.004 186.779C188.048 186.342 188.133 185.911 188.258 185.49C188.663 184.085 189.417 182.806 190.448 181.77C191.486 180.737 192.764 179.98 194.168 179.566C194.589 179.441 195.021 179.356 195.457 179.312C195.616 179.282 195.779 179.282 195.938 179.312C195.938 179.372 195.27 179.446 194.242 179.8C192.907 180.258 191.695 181.015 190.698 182.014C189.701 183.014 188.946 184.228 188.491 185.564C188.137 186.599 188.064 187.267 188.004 187.267Z" fill="#263238"/>
<path d="M188.992 179.68C189.883 179.156 190.891 178.865 191.924 178.831C192.947 178.69 193.989 178.814 194.95 179.192C194.95 179.299 193.614 179.039 191.951 179.192C190.288 179.346 189.032 179.78 188.992 179.68Z" fill="#263238"/>
<g opacity="0.3">
<path d="M125.364 196.958L123.694 198.841C125.435 200.99 127.795 202.552 130.453 203.316C133.133 203.884 135.87 204.131 138.608 204.05C139.717 204.104 140.828 203.998 141.907 203.736C142.996 203.423 144.004 202.808 145.133 202.741C145.89 202.745 146.643 202.853 147.37 203.062C148.103 203.27 148.876 203.281 149.614 203.095C149.98 202.997 150.304 202.783 150.538 202.486C150.773 202.189 150.906 201.824 150.917 201.446C142.591 199.012 134.021 197.507 125.364 196.958Z" fill="black"/>
</g>
<path d="M180.13 199.375L175.455 194.38L165.737 191.942C165.737 191.942 156.868 194.613 156.654 194.613C156.44 194.613 148.933 192.556 148.933 192.556L146.309 202.187L159.833 203.115L175.274 202.494C175.274 202.494 176.082 201.746 175.601 201.232C175.121 200.718 178.186 202.1 178.547 202.114C178.907 202.127 179.602 202.407 180.083 201.833C180.41 201.406 180.851 200.143 180.13 199.375Z" fill="#FFBE9D"/>
<path d="M175.601 201.198C175.077 201.099 174.562 200.952 174.065 200.758C173.13 200.464 171.828 200.09 170.378 199.689C168.929 199.288 167.593 199.021 166.625 198.854C166.095 198.785 165.574 198.662 165.069 198.487C165.604 198.464 166.14 198.504 166.665 198.607C167.943 198.785 169.209 199.035 170.459 199.355C171.71 199.673 172.941 200.065 174.145 200.531C174.657 200.69 175.146 200.915 175.601 201.198Z" fill="#EB996E"/>
<path d="M180.13 199.375C179.401 199.191 178.684 198.968 177.979 198.707C176.643 198.267 174.82 197.719 172.77 197.151C170.719 196.584 168.903 195.936 167.52 195.856C166.776 195.817 166.029 195.846 165.29 195.942C165.47 195.843 165.667 195.775 165.871 195.742C166.417 195.624 166.976 195.579 167.534 195.609C168.963 195.609 170.873 196.216 172.877 196.817C174.88 197.418 176.764 197.973 178.073 198.48C178.741 198.727 179.241 198.955 179.602 199.115C179.79 199.175 179.968 199.263 180.13 199.375Z" fill="#EB996E"/>
<path d="M126.453 142.072C126.453 142.072 119.473 146.927 117.77 153.913C116.067 160.899 108.714 189.451 110.223 193.718C111.733 197.986 141.079 202.18 141.079 202.18L144.559 187.487L129.652 183.406C129.652 183.406 129.845 169.815 130.032 164.185C130.219 158.555 126.453 142.072 126.453 142.072Z" fill="#FF725E"/>
<path d="M144.371 189.698L149.173 190.88L146.282 201.953L141.566 201.199L144.371 189.698Z" fill="white"/>
<path d="M110.116 192.209C110.116 192.209 110.116 192.456 110.19 192.877C110.352 193.523 110.709 194.103 111.212 194.54C112.487 195.729 114.925 196.717 118.011 197.271C119.42 197.739 121.029 198.106 122.746 198.494C124.462 198.881 126.319 199.275 128.269 199.669C132.176 200.471 136.497 201.312 141.079 202.167L140.879 202.294C141.206 200.958 141.546 199.495 141.914 198.033C142.735 194.693 143.537 191.408 144.291 188.315L144.412 188.516L131.194 184.769C129.369 184.001 127.395 183.654 125.417 183.754C123.914 183.837 122.438 184.186 121.056 184.782C120.178 185.162 119.339 185.627 118.552 186.171L117.944 186.612C117.877 186.666 117.806 186.713 117.73 186.752C117.73 186.752 117.79 186.686 117.917 186.579C118.044 186.472 118.238 186.305 118.505 186.105C119.28 185.529 120.116 185.039 120.996 184.642C122.387 184.012 123.88 183.638 125.404 183.54C127.416 183.412 129.431 183.745 131.295 184.515L144.552 188.228L144.712 188.269L144.672 188.429C143.917 191.521 143.123 194.78 142.308 198.153C141.947 199.609 141.6 201.052 141.266 202.407L141.226 202.568H141.066C136.484 201.706 132.169 200.851 128.262 200.036C126.312 199.629 124.462 199.222 122.739 198.821C121.016 198.42 119.4 198.039 117.984 197.552C114.858 196.958 112.42 195.929 111.131 194.68C110.62 194.221 110.269 193.61 110.13 192.937C110.082 192.697 110.077 192.45 110.116 192.209Z" fill="#263238"/>
<path d="M130.467 184.401C130.427 184.448 129.926 183.987 129.031 183.393C126.687 181.823 123.916 181.014 121.096 181.075C120.014 181.075 119.353 181.222 119.34 181.162C119.899 180.96 120.488 180.849 121.083 180.835C123.981 180.625 126.858 181.461 129.191 183.193C129.68 183.522 130.111 183.931 130.467 184.401Z" fill="#263238"/>
<path d="M132.423 160.492C132.448 160.79 132.448 161.089 132.423 161.387C132.423 161.968 132.363 162.796 132.283 163.824C132.116 165.875 131.815 168.7 131.274 171.799C130.852 174.45 130.233 177.066 129.424 179.626C129.264 180.114 129.091 180.555 128.95 180.962L128.523 181.924C128.398 182.198 128.243 182.458 128.062 182.698C128.146 182.412 128.258 182.135 128.396 181.87C128.509 181.583 128.63 181.256 128.77 180.895C128.91 180.535 129.044 180.067 129.191 179.559C129.921 176.99 130.503 174.381 130.934 171.745C131.468 168.66 131.809 165.848 132.036 163.804C132.136 162.836 132.223 162.028 132.29 161.387C132.298 161.084 132.343 160.784 132.423 160.492Z" fill="#263238"/>
<path d="M149.441 152.925C149.441 152.925 149.374 152.744 149.214 152.43C148.976 151.986 148.629 151.609 148.205 151.335C147.892 151.12 147.533 150.979 147.157 150.924C146.781 150.868 146.397 150.899 146.035 151.015C145.575 151.172 145.165 151.446 144.844 151.81C144.523 152.175 144.303 152.616 144.205 153.092L144.111 153.566L143.904 153.125C143.123 151.449 142.443 149.727 141.867 147.969C140.847 145.041 140.336 141.96 140.358 138.859C140.358 138.265 140.438 137.731 140.471 137.256C140.505 136.782 140.611 136.388 140.685 136.068C140.755 135.731 140.854 135.4 140.979 135.079C140.751 136.327 140.624 137.591 140.598 138.859C140.653 141.926 141.192 144.964 142.194 147.862C142.77 149.606 143.439 151.319 144.198 152.991L143.897 153.032C144.013 152.506 144.264 152.021 144.626 151.623C144.988 151.226 145.449 150.931 145.961 150.767C146.359 150.647 146.779 150.622 147.188 150.692C147.597 150.763 147.984 150.928 148.319 151.175C148.752 151.48 149.094 151.898 149.307 152.384C149.365 152.512 149.408 152.646 149.434 152.784C149.447 152.871 149.454 152.925 149.441 152.925Z" fill="#263238"/>
<path d="M165.724 154.427C165.652 154.167 165.601 153.901 165.57 153.633C165.424 152.896 165.377 152.144 165.43 151.395C165.58 150.243 166.154 149.189 167.039 148.437C167.587 147.986 168.274 147.738 168.983 147.735C169.369 147.731 169.752 147.81 170.105 147.968C170.458 148.126 170.772 148.359 171.027 148.65L170.733 148.824L170.098 147.228C168.849 144.082 167.741 141.217 166.952 139.153L166.038 136.689C165.91 136.394 165.814 136.088 165.75 135.774C165.915 136.05 166.053 136.34 166.164 136.642C166.432 137.31 166.772 138.091 167.186 139.066C168.034 141.117 169.19 143.955 170.425 147.081L171.053 148.684L171.461 149.712L170.793 148.851C170.572 148.595 170.298 148.391 169.99 148.252C169.682 148.114 169.347 148.044 169.01 148.049C168.374 148.045 167.756 148.26 167.26 148.657C166.425 149.355 165.868 150.329 165.69 151.402C165.618 152.133 165.632 152.871 165.73 153.599C165.762 153.874 165.76 154.153 165.724 154.427Z" fill="#263238"/>
<path d="M178.112 156.084C178.206 156.084 179.715 166.222 181.485 178.758C183.255 191.294 184.604 201.466 184.511 201.466C184.417 201.466 182.908 191.327 181.138 178.758C179.368 166.189 178.019 156.097 178.112 156.084Z" fill="#263238"/>
<g opacity="0.3">
<path d="M142.067 148.076C142.149 150.673 142.713 153.232 143.73 155.623C144.458 154.721 145.266 153.773 146.402 153.506C147.778 153.178 149.174 154.027 150.169 155.069C149.996 154.027 149.585 153.039 148.967 152.183C148.658 151.763 148.256 151.419 147.793 151.179C147.329 150.939 146.817 150.81 146.295 150.801C145.775 150.813 145.274 150.998 144.871 151.327C144.468 151.656 144.187 152.11 144.071 152.617L142.154 148.123" fill="black"/>
</g>
<path d="M130.787 155.416C130.727 155.416 130.747 154.715 130.547 153.626C130.272 152.208 129.721 150.857 128.924 149.652C128.475 149 127.963 148.394 127.394 147.842C126.924 147.396 126.411 146.996 125.865 146.647C124.923 146.052 124.262 145.825 124.289 145.765C124.453 145.777 124.613 145.818 124.763 145.885C124.95 145.936 125.131 146.005 125.304 146.092C125.535 146.192 125.758 146.308 125.972 146.44C126.553 146.768 127.097 147.158 127.595 147.602C128.194 148.16 128.729 148.783 129.191 149.458C130.019 150.699 130.558 152.109 130.767 153.586C130.834 154.028 130.856 154.475 130.834 154.922C130.834 155.242 130.814 155.416 130.787 155.416Z" fill="#263238"/>
<path d="M169.557 107.79C169.176 104.214 167.462 100.912 164.756 98.5421C162.051 96.1722 158.553 94.9076 154.957 95.0001H154.216C146.235 95.668 142.348 102.821 143.243 110.775L145.434 138.759L146.362 139.894C148.446 142.455 151.319 144.254 154.532 145.011C157.745 145.769 161.119 145.442 164.127 144.082L163.513 135.079C163.513 135.079 171.167 133.69 171.06 126.009C171.013 122.283 170.292 114.656 169.557 107.79Z" fill="#FFBE9D"/>
<path d="M163.573 135.059C160.01 135.158 156.493 134.231 153.441 132.388C153.441 132.388 155.946 137.858 163.593 136.969L163.573 135.059Z" fill="#EB996E"/>
<path d="M167.126 114.108C167.134 114.393 167.031 114.67 166.839 114.882C166.648 115.093 166.382 115.223 166.097 115.243C165.958 115.257 165.818 115.243 165.684 115.202C165.55 115.161 165.426 115.094 165.318 115.004C165.211 114.915 165.122 114.805 165.058 114.681C164.993 114.557 164.954 114.421 164.942 114.282C164.933 113.996 165.035 113.718 165.227 113.506C165.419 113.294 165.685 113.165 165.971 113.146C166.11 113.131 166.251 113.145 166.385 113.186C166.519 113.226 166.644 113.293 166.751 113.383C166.859 113.473 166.948 113.583 167.012 113.708C167.076 113.832 167.115 113.968 167.126 114.108Z" fill="#263238"/>
<path d="M167.614 109.934C167.527 110.067 166.659 110.161 165.61 110.722C164.562 111.283 163.947 111.984 163.807 111.971C163.667 111.957 163.807 111.777 164.067 111.463C164.467 111.02 164.942 110.652 165.47 110.375C165.974 110.093 166.527 109.909 167.099 109.834C167.494 109.794 167.661 109.867 167.614 109.934Z" fill="#263238"/>
<path d="M156.04 114.689C156.052 114.976 155.951 115.256 155.759 115.468C155.566 115.681 155.297 115.809 155.011 115.824C154.872 115.839 154.731 115.826 154.597 115.785C154.462 115.744 154.338 115.677 154.23 115.587C154.122 115.498 154.034 115.387 153.969 115.263C153.905 115.138 153.866 115.002 153.856 114.863C153.846 114.577 153.948 114.299 154.14 114.087C154.332 113.875 154.599 113.746 154.884 113.727C155.023 113.713 155.164 113.726 155.298 113.767C155.433 113.807 155.557 113.874 155.665 113.964C155.773 114.054 155.861 114.164 155.926 114.289C155.99 114.413 156.029 114.549 156.04 114.689Z" fill="#263238"/>
<path d="M155.906 111.543C155.752 111.543 155.038 111.096 153.902 110.815C152.767 110.535 151.825 110.595 151.725 110.501C151.625 110.408 151.845 110.368 152.253 110.334C152.848 110.297 153.445 110.353 154.023 110.501C154.582 110.634 155.115 110.86 155.599 111.169C155.866 111.383 155.946 111.53 155.906 111.543Z" fill="#263238"/>
<path d="M160.501 120.713C161.12 120.507 161.761 120.374 162.411 120.319C162.711 120.319 162.992 120.212 163.039 120.005C163.058 119.696 162.981 119.388 162.818 119.124L161.863 116.846C160.528 113.614 159.579 110.949 159.713 110.902C159.846 110.855 161.048 113.427 162.337 116.659C162.658 117.461 162.965 118.222 163.252 118.95C163.45 119.308 163.516 119.724 163.439 120.126C163.398 120.233 163.332 120.33 163.248 120.409C163.164 120.487 163.062 120.546 162.952 120.58C162.787 120.631 162.617 120.66 162.444 120.667C161.801 120.765 161.148 120.781 160.501 120.713Z" fill="#263238"/>
<path d="M155.906 106.989C155.772 107.302 154.604 107.095 153.234 107.189C151.865 107.282 150.703 107.616 150.563 107.316C150.483 107.176 150.696 106.882 151.157 106.594C151.777 106.242 152.47 106.035 153.182 105.991C153.894 105.947 154.606 106.067 155.265 106.341C155.706 106.574 155.946 106.835 155.906 106.989Z" fill="#263238"/>
<path d="M167.587 107.249C167.327 107.523 166.311 107.249 165.096 107.249C163.88 107.249 162.845 107.456 162.605 107.175C162.498 107.042 162.658 106.768 163.106 106.507C163.723 106.184 164.413 106.025 165.109 106.047C165.811 106.042 166.502 106.221 167.113 106.568C167.554 106.841 167.701 107.122 167.587 107.249Z" fill="#263238"/>
<path d="M171.794 100.964C171.727 100.614 171.533 100.3 171.25 100.082C170.967 99.8644 170.615 99.7577 170.258 99.7821C170.642 99.6726 171.001 99.4888 171.314 99.2411C171.469 99.1156 171.586 98.9487 171.651 98.7597C171.716 98.5707 171.726 98.3671 171.681 98.1725C171.481 97.5781 170.719 97.4512 170.118 97.2842C169.329 97.0549 168.63 96.5886 168.114 95.9485C167.386 95.0268 167.106 93.8246 166.472 92.8295C166.062 92.1871 165.513 91.6447 164.866 91.2424C164.219 90.84 163.49 90.5879 162.732 90.5046C161.975 90.4213 161.208 90.5089 160.489 90.761C159.77 91.0131 159.117 91.4233 158.577 91.9613C157.988 91.3555 157.263 90.8992 156.461 90.6302C155.66 90.3612 154.807 90.2873 153.971 90.4147C153.136 90.542 152.343 90.867 151.658 91.3625C150.974 91.858 150.417 92.5098 150.035 93.2636C149.011 92.8364 147.89 92.6924 146.791 92.8468C145.692 93.0013 144.654 93.4484 143.787 94.1414C142.92 94.8345 142.255 95.7479 141.862 96.7861C141.469 97.8243 141.362 98.949 141.553 100.043L146.335 102.974C146.374 102.611 146.489 102.26 146.674 101.944C146.859 101.628 147.108 101.355 147.406 101.143C147.704 100.931 148.044 100.784 148.403 100.713C148.761 100.642 149.131 100.648 149.488 100.73C150.93 101.151 151.852 102.821 153.348 102.934C154.517 103.021 155.512 102.12 156.64 101.819C158.01 101.452 159.459 101.999 160.694 102.694C161.93 103.389 163.112 104.257 164.488 104.604C166.131 104.934 167.837 104.73 169.357 104.023C170.032 103.786 170.647 103.406 171.16 102.908C171.413 102.658 171.603 102.351 171.713 102.013C171.823 101.675 171.851 101.315 171.794 100.964Z" fill="#263238"/>
<path d="M147.144 100.717L169.05 100.597C168.259 99.1247 167.111 97.8752 165.71 96.9637C162.801 94.8381 159.295 93.6857 155.692 93.6711C152.119 93.6711 144.973 98.2594 142.455 100.791C140.451 102.794 140.505 104.524 140.505 104.524C140.251 107.369 141.927 110.535 142.642 113.32C143.003 114.749 143.757 119.077 143.757 119.077C144.96 119.044 145.38 118.069 145.167 116.88L144.813 112.205C145.995 111.218 146.823 109.874 147.171 108.374C147.519 106.875 147.369 105.303 146.743 103.896C146.442 103.482 145.721 101.552 147.144 100.717Z" fill="#263238"/>
<path d="M144.499 111.897C143.383 108.023 142.355 103.883 143.543 100.009H142.876L142.608 100.203C141.991 99.9952 141.323 99.9898 140.702 100.187C140.082 100.385 139.54 100.775 139.156 101.301C138.772 101.828 138.565 102.463 138.566 103.114C138.568 103.766 138.776 104.4 139.162 104.925C138.511 104.919 137.88 105.151 137.388 105.578C136.896 106.005 136.577 106.597 136.491 107.242C136.493 108.142 136.74 109.024 137.205 109.793C137.672 110.565 137.957 111.433 138.04 112.331C138.068 112.779 137.938 113.221 137.671 113.582C137.405 113.942 137.02 114.197 136.584 114.302C136.795 114.757 137.157 115.126 137.608 115.346C138.06 115.567 138.573 115.624 139.062 115.51C138.75 116.272 138.229 116.929 137.559 117.407C138.989 118.382 140.945 118.075 142.495 117.294C143.456 116.907 144.241 116.179 144.699 115.25C145.126 114.175 144.806 112.992 144.499 111.897Z" fill="#263238"/>
<path d="M144.138 116.419C144.004 116.365 138.795 114.996 139.122 120.239C139.449 125.482 144.632 124.099 144.632 123.946C144.632 123.792 144.138 116.419 144.138 116.419Z" fill="#FFBE9D"/>
<path d="M143.377 122.042C143.377 122.042 143.29 122.109 143.136 122.189C142.929 122.292 142.689 122.311 142.468 122.243C141.901 122.069 141.386 121.221 141.306 120.272C141.266 119.819 141.327 119.363 141.486 118.937C141.529 118.768 141.612 118.612 141.729 118.483C141.845 118.354 141.991 118.255 142.154 118.195C142.258 118.163 142.37 118.167 142.47 118.207C142.571 118.247 142.655 118.321 142.709 118.416C142.789 118.556 142.755 118.663 142.789 118.676C142.822 118.689 142.896 118.576 142.842 118.362C142.799 118.237 142.72 118.128 142.615 118.048C142.541 117.997 142.457 117.961 142.369 117.942C142.281 117.924 142.189 117.924 142.101 117.941C141.888 117.997 141.693 118.106 141.534 118.258C141.376 118.41 141.258 118.6 141.193 118.81C141 119.279 140.92 119.787 140.959 120.292C141.059 121.348 141.627 122.296 142.428 122.483C142.57 122.514 142.718 122.514 142.86 122.481C143.002 122.449 143.135 122.386 143.25 122.296C143.377 122.169 143.397 122.049 143.377 122.042Z" fill="#EB996E"/>
<path d="M138.695 112.071C138.695 112.071 138.548 111.871 138.595 111.457C138.651 111.176 138.767 110.91 138.937 110.68C139.107 110.449 139.325 110.258 139.576 110.121C140.329 109.763 141.148 109.565 141.981 109.54C142.447 109.54 142.906 109.43 143.322 109.219C143.737 109.007 144.097 108.701 144.372 108.324C144.808 107.475 144.953 106.506 144.786 105.566C144.659 104.684 144.425 103.89 144.312 103.202C144.1 102.465 144.112 101.681 144.345 100.951C144.35 101.688 144.432 102.422 144.592 103.142C144.739 103.809 145 104.591 145.16 105.519C145.362 106.546 145.206 107.611 144.719 108.538C144.429 109.017 143.991 109.388 143.47 109.593C143.004 109.766 142.516 109.874 142.021 109.914C141.231 109.918 140.449 110.073 139.717 110.368C139.487 110.486 139.284 110.648 139.117 110.845C138.951 111.042 138.826 111.271 138.748 111.517C138.718 111.7 138.7 111.885 138.695 112.071Z" fill="#455A64"/>
<path d="M137.426 109.794C137.426 109.794 137.312 109.647 137.266 109.319C137.212 108.858 137.303 108.391 137.526 107.984C137.679 107.694 137.891 107.44 138.147 107.236C138.447 107.011 138.79 106.852 139.156 106.768C139.51 106.692 139.847 106.552 140.151 106.354C140.285 106.234 140.39 106.085 140.459 105.919C140.527 105.752 140.556 105.572 140.545 105.392C140.545 104.998 140.498 104.577 140.512 104.157C140.517 103.755 140.562 103.354 140.645 102.961C140.78 102.297 141.036 101.663 141.4 101.091C141.516 100.881 141.682 100.704 141.884 100.574C142.085 100.445 142.316 100.368 142.555 100.35C142.902 100.35 143.049 100.51 143.036 100.523C143.023 100.537 142.862 100.463 142.569 100.523C142.368 100.566 142.18 100.655 142.019 100.782C141.858 100.91 141.728 101.073 141.64 101.258C141.339 101.818 141.127 102.422 141.012 103.048C140.948 103.419 140.914 103.794 140.912 104.17C140.912 104.557 140.972 104.972 140.952 105.426C140.962 105.663 140.917 105.9 140.821 106.118C140.725 106.336 140.58 106.528 140.398 106.681C140.053 106.912 139.664 107.069 139.256 107.142C138.952 107.194 138.662 107.31 138.407 107.483C138.151 107.656 137.935 107.881 137.773 108.144C137.499 108.648 137.378 109.222 137.426 109.794Z" fill="#455A64"/>
<path d="M168.121 95.9486C168.154 95.9486 167.727 96.2358 167.039 95.9152C166.652 95.7051 166.313 95.4162 166.044 95.067C165.713 94.6326 165.3 94.2673 164.828 93.9917C164.215 93.6469 163.515 93.488 162.813 93.5342C162.111 93.5805 161.437 93.8299 160.875 94.2522C160.207 94.7197 159.652 95.3809 158.871 95.9285C158.474 96.2233 158.018 96.4304 157.535 96.5363C157.035 96.6239 156.521 96.5755 156.046 96.3961C155.098 96.0554 154.349 95.4744 153.535 95.1805C152.748 94.8787 151.912 94.7269 151.07 94.733C149.619 94.7312 148.209 95.213 147.063 96.1022C146.297 96.7004 145.661 97.4479 145.193 98.2995C144.866 98.9073 144.745 99.2813 144.712 99.2679C144.679 99.2546 144.712 99.1677 144.766 98.9874C144.841 98.7274 144.935 98.473 145.046 98.226C145.477 97.3165 146.105 96.5137 146.883 95.8751C148.055 94.9169 149.516 94.3827 151.03 94.359C151.922 94.3359 152.809 94.4879 153.642 94.8065C154.523 95.1271 155.285 95.7081 156.146 96.0087C156.554 96.1659 156.997 96.2097 157.428 96.1356C157.846 96.0397 158.24 95.8578 158.584 95.6013C159.285 95.1004 159.873 94.4392 160.587 93.945C161.248 93.45 162.053 93.1849 162.878 93.1903C163.582 93.1954 164.273 93.3842 164.882 93.7379C165.37 94.049 165.793 94.4502 166.131 94.9201C166.365 95.2632 166.667 95.5543 167.019 95.7749C167.35 95.9721 167.745 96.0342 168.121 95.9486Z" fill="#455A64"/>
<path d="M157.589 122.089C157.756 122.089 157.943 123.171 159.038 123.806C160.133 124.44 161.302 124.119 161.342 124.273C161.382 124.427 161.108 124.54 160.607 124.634C159.953 124.755 159.276 124.642 158.697 124.313C158.143 123.992 157.732 123.471 157.549 122.857C157.428 122.396 157.509 122.096 157.589 122.089Z" fill="#263238"/>
<path d="M226.7 226.444C224.667 224.697 222.028 223.819 219.354 224L214.839 238.339C218.145 238.486 221.444 240.189 224.637 239.314C225.912 238.921 227.047 238.171 227.91 237.154C228.773 236.136 229.326 234.892 229.505 233.57C229.644 232.245 229.462 230.905 228.974 229.664C228.485 228.424 227.706 227.32 226.7 226.444Z" fill="#FF725E"/>
<path d="M219.407 223.672C219.407 223.559 219.895 223.465 220.743 223.472C222.005 223.495 223.254 223.732 224.436 224.173C226.243 224.877 227.807 226.091 228.938 227.666C229.629 228.601 230.138 229.656 230.441 230.779C230.767 232.007 230.804 233.294 230.547 234.539C230.299 235.8 229.736 236.979 228.911 237.965C228.121 238.863 227.121 239.552 225.999 239.968C224.177 240.613 222.212 240.74 220.322 240.336C219.106 240.097 217.919 239.728 216.783 239.234C215.988 238.893 215.567 238.639 215.607 238.526C215.647 238.412 216.128 238.446 216.943 238.586C217.758 238.726 218.993 238.987 220.463 239.12C222.129 239.305 223.815 239.076 225.371 238.452C226.225 238.092 226.98 237.533 227.575 236.823C228.2 236.046 228.626 235.129 228.818 234.151C229.001 233.182 228.987 232.186 228.777 231.222C228.567 230.258 228.165 229.346 227.595 228.541C226.675 227.147 225.41 226.015 223.922 225.255C222.868 224.758 221.764 224.373 220.63 224.107C219.861 223.933 219.394 223.793 219.407 223.672Z" fill="#F5F5F5"/>
<path d="M177.578 277.47L167.761 304.979L201.922 317.368C202.911 314.029 187.61 301.072 187.61 301.072L194.623 283.708L177.578 277.47Z" fill="#FF725E"/>
<g opacity="0.6">
<path d="M177.585 295.763C177.22 295.743 176.861 295.859 176.576 296.088C176.291 296.318 176.101 296.644 176.042 297.005C176.01 297.368 176.117 297.73 176.344 298.015C176.57 298.301 176.897 298.489 177.258 298.541C177.647 298.562 178.03 298.436 178.332 298.189C178.633 297.942 178.831 297.591 178.888 297.205C178.888 296.477 178.166 295.642 177.445 295.743" fill="white"/>
</g>
<path d="M167.761 304.979L168.756 302.208L201.201 315.151C201.201 315.151 202.483 316.36 201.922 317.368L167.761 304.979Z" fill="white"/>
<path d="M188.231 301.099C188.164 301.266 187.303 301.039 186.288 301.279C185.272 301.52 184.578 302.061 184.451 301.947C184.324 301.834 184.918 300.952 186.154 300.685C187.39 300.418 188.318 300.959 188.231 301.099Z" fill="#263238"/>
<path d="M191.303 303.884C191.303 304.058 190.455 304.078 189.634 304.552C188.812 305.026 188.378 305.741 188.211 305.674C188.044 305.607 188.284 304.625 189.32 304.018C190.355 303.41 191.303 303.724 191.303 303.884Z" fill="#263238"/>
<path d="M191.751 308.906C191.59 308.906 191.657 307.971 192.419 307.21C193.18 306.449 194.088 306.375 194.108 306.542C194.128 306.709 193.474 307.016 192.859 307.651C192.245 308.285 191.924 308.953 191.751 308.906Z" fill="#263238"/>
<path d="M189.387 296.965C189.26 297.092 188.578 296.584 187.617 296.297C186.655 296.01 185.807 296.05 185.773 295.876C185.74 295.703 186.655 295.362 187.777 295.709C188.899 296.057 189.52 296.865 189.387 296.965Z" fill="#263238"/>
<path d="M190.041 292.617C189.427 292.563 188.84 292.346 188.338 291.989C187.759 291.658 187.225 291.254 186.748 290.787C186.463 290.514 186.198 290.222 185.954 289.912C185.8 289.736 185.674 289.538 185.58 289.324C185.512 289.166 185.5 288.99 185.545 288.824C185.59 288.658 185.689 288.512 185.827 288.409C185.952 288.324 186.096 288.268 186.247 288.247C186.397 288.226 186.551 288.241 186.695 288.289C186.912 288.367 187.116 288.475 187.303 288.61C187.636 288.833 187.949 289.085 188.238 289.365C188.72 289.832 189.126 290.373 189.44 290.967C189.783 291.488 189.958 292.101 189.941 292.724C189.847 292.724 189.647 292.089 189.066 291.188C188.721 290.669 188.313 290.196 187.85 289.779C187.577 289.533 187.284 289.31 186.975 289.111C186.648 288.884 186.341 288.77 186.194 288.897C186.047 289.024 186.12 288.97 186.161 289.104C186.23 289.261 186.322 289.408 186.434 289.538C186.653 289.834 186.892 290.116 187.149 290.38C187.582 290.836 188.059 291.25 188.572 291.615C189.453 292.25 190.081 292.53 190.041 292.617Z" fill="#263238"/>
<path d="M189.74 292.79C189.595 292.185 189.647 291.549 189.887 290.974C190.089 290.33 190.399 289.725 190.802 289.184C191.044 288.866 191.315 288.571 191.61 288.302C191.786 288.111 192.008 287.968 192.254 287.886C192.501 287.804 192.764 287.787 193.019 287.835C193.17 287.895 193.301 287.996 193.397 288.128C193.493 288.259 193.549 288.414 193.56 288.576C193.573 288.8 193.555 289.025 193.507 289.244C193.402 289.786 193.189 290.302 192.882 290.761C192.575 291.219 192.178 291.612 191.717 291.916C190.729 292.583 189.961 292.503 189.967 292.443C189.974 292.383 190.635 292.229 191.463 291.562C191.934 291.178 192.317 290.697 192.585 290.152C192.741 289.835 192.851 289.498 192.913 289.151C192.993 288.77 192.959 288.423 192.812 288.416C192.662 288.41 192.512 288.438 192.374 288.497C192.235 288.555 192.111 288.644 192.011 288.757C191.734 288.991 191.479 289.25 191.25 289.531C190.858 290.01 190.539 290.543 190.301 291.114C189.887 292.123 189.84 292.79 189.74 292.79Z" fill="#263238"/>
<path d="M144.485 204.004C139.303 204.124 134.387 204.852 130.814 208.612C126.079 213.601 120.228 220.7 119.894 225.623C119.4 232.969 123.841 235.173 127.081 236.976C128.513 237.751 130.128 238.127 131.756 238.065L191.651 237.611L193.527 227.466L154.791 217.915L156.4 203.336L144.485 204.004Z" fill="#263238"/>
<path d="M156.433 203.329L175.274 202.461C175.274 202.461 207.826 204.271 214.765 210.635C221.705 217 220.843 224.233 218.525 231.173C216.208 238.112 195.818 282.519 195.818 282.519C195.818 282.519 197.474 285.344 196.546 288.162C196.17 289.397 195.48 290.512 194.543 291.4C193.607 292.287 192.456 292.916 191.203 293.225L173.09 286.546C173.09 286.546 170.632 285.678 172.369 283.36C174.105 281.043 175.261 280.615 175.261 280.615V275.987C175.261 275.987 181.625 264.413 182.2 262.823C182.774 261.233 188.879 237.684 188.879 237.684L192.933 230.718C192.933 230.718 183.135 226.11 174.64 222.771L154.804 217.882L156.433 203.329Z" fill="#263238"/>
<path d="M186.995 285.731C186.447 285.412 185.916 285.065 185.406 284.689C182.847 283.031 179.965 281.936 176.95 281.477C176.318 281.415 175.69 281.322 175.067 281.196C175.702 281.123 176.345 281.134 176.977 281.23C180.066 281.56 183.018 282.682 185.546 284.489C186.081 284.837 186.569 285.255 186.995 285.731Z" fill="#455A64"/>
<path d="M196.045 282.552C195.65 282.228 195.298 281.856 194.996 281.443C194.382 280.729 193.567 279.714 192.719 278.551C191.871 277.389 191.136 276.314 190.635 275.519C190.337 275.104 190.086 274.655 189.887 274.184C190.246 274.546 190.564 274.947 190.836 275.379L192.999 278.344C193.808 279.44 194.549 280.428 195.19 281.29C195.52 281.678 195.807 282.101 196.045 282.552Z" fill="#455A64"/>
<path d="M202.657 224.387C202.657 224.44 201.989 224.587 200.94 224.935C198.195 225.841 195.707 227.394 193.687 229.463C193.293 229.918 192.876 230.352 192.438 230.765C192.721 230.226 193.081 229.731 193.507 229.296C194.479 228.199 195.603 227.247 196.846 226.471C198.089 225.689 199.439 225.092 200.854 224.701C201.435 224.506 202.043 224.4 202.657 224.387Z" fill="#455A64"/>
<path d="M184.157 255.83C184.165 255.697 184.189 255.564 184.23 255.436L184.511 254.334L185.593 250.294L189.299 236.996C190.054 234.398 190.695 231.927 191.423 229.683C192.192 227.733 193.353 225.962 194.836 224.481C195.815 223.477 196.898 222.581 198.069 221.809C198.489 221.542 198.817 221.342 199.05 221.221C199.162 221.15 199.281 221.09 199.404 221.041C199.404 221.041 198.95 221.348 198.149 221.916C197.017 222.724 195.966 223.639 195.01 224.648C193.58 226.123 192.462 227.872 191.724 229.79C191.056 232.001 190.388 234.505 189.633 237.09L185.833 250.354C185.339 252.017 184.931 253.373 184.638 254.361C184.497 254.802 184.391 255.163 184.297 255.443C184.268 255.578 184.221 255.708 184.157 255.83Z" fill="#455A64"/>
<path d="M167.493 221.909C167.393 221.909 166.999 218.396 166.605 214.042C166.211 209.687 165.937 206.148 166.071 206.141C166.204 206.134 166.558 209.654 166.952 214.008C167.346 218.363 167.587 221.903 167.493 221.909Z" fill="#455A64"/>
<path d="M136.13 231.346C136.077 231.346 135.79 230.805 135.195 229.971C134.428 228.885 133.508 227.915 132.464 227.092C131.411 226.279 130.249 225.62 129.011 225.135C128.056 224.761 127.435 224.621 127.448 224.561C128.01 224.587 128.565 224.702 129.091 224.901C131.703 225.763 133.934 227.505 135.402 229.83C135.727 230.292 135.972 230.804 136.13 231.346Z" fill="#455A64"/>
<path d="M147.671 218.523C147.671 218.577 146.843 218.069 145.46 217.435C141.833 215.787 137.81 215.212 133.866 215.778C132.363 215.992 131.448 216.259 131.435 216.199C131.629 216.089 131.839 216.008 132.056 215.959C132.637 215.779 133.228 215.636 133.826 215.531C137.815 214.831 141.923 215.421 145.554 217.214C146.098 217.483 146.625 217.786 147.13 218.122C147.328 218.23 147.51 218.365 147.671 218.523Z" fill="#455A64"/>
<path d="M192.793 227.446C192.632 227.438 192.473 227.411 192.318 227.366L190.983 227.079L186.107 226.003C181.986 225.082 176.283 223.839 169.958 222.591C163.633 221.342 157.89 220.306 153.729 219.592L148.793 218.744L147.457 218.51C147.3 218.491 147.145 218.453 146.997 218.396C147.155 218.401 147.314 218.414 147.471 218.436L148.807 218.61C149.975 218.77 151.665 219.024 153.755 219.351C157.93 220.019 163.687 220.994 170.018 222.25C176.35 223.505 182.04 224.781 186.154 225.763C188.204 226.257 189.867 226.671 191.009 226.972L192.345 227.319C192.498 227.348 192.648 227.39 192.793 227.446Z" fill="#455A64"/>
<path d="M154.824 219.625C154.757 219.625 154.617 218.837 153.996 217.715C153.632 217.068 153.183 216.472 152.66 215.945C152 215.296 151.3 214.689 150.563 214.129C149.205 213.125 147.769 212.232 146.268 211.457C145.634 211.155 145.022 210.807 144.438 210.415C145.111 210.628 145.761 210.903 146.382 211.237C147.932 211.955 149.404 212.83 150.777 213.848C151.524 214.418 152.229 215.041 152.887 215.712C153.423 216.267 153.874 216.9 154.223 217.588C154.463 218.054 154.644 218.547 154.764 219.058C154.819 219.241 154.839 219.434 154.824 219.625Z" fill="#455A64"/>
<path d="M221.538 228.675C221.611 228.755 220.609 229.763 219.828 231.306C219.046 232.849 218.793 234.238 218.692 234.218C218.69 233.139 218.976 232.078 219.521 231.146C219.963 230.159 220.659 229.306 221.538 228.675Z" fill="#263238"/>
<g opacity="0.3">
<path d="M178.667 160.245L182.955 190.446L183.168 190.927C184.174 180.486 182.629 169.957 178.667 160.245Z" fill="black"/>
</g>
<path d="M201.755 177.596L187.817 201.96L153.468 202.708L153.381 204.264L186.641 204.017L187.697 203.977L222.813 204.05L229.913 191.808L238.983 178.811C239.114 178.619 239.19 178.394 239.203 178.161C239.216 177.928 239.165 177.696 239.055 177.49C238.946 177.284 238.783 177.111 238.583 176.991C238.383 176.871 238.154 176.808 237.921 176.808L202.864 176.941C202.638 176.943 202.416 177.005 202.222 177.119C202.027 177.234 201.866 177.399 201.755 177.596Z" fill="#E0E0E0"/>
<path d="M229.913 191.828C229.913 191.828 231.716 193.485 231.436 194.887C231.155 196.29 231.242 197.338 229.913 197.432C229.938 197.945 229.764 198.448 229.429 198.837C229.093 199.226 228.621 199.471 228.11 199.522C228.11 199.522 228.517 201.726 225.952 202.107C225.952 202.107 225.164 204.465 223.548 203.89C222.617 203.573 221.721 203.159 220.877 202.655L220.402 201.8C220.402 201.8 218.018 200.905 218.606 199.562C218.967 198.748 220.195 198.534 220.195 198.534C220.054 198.199 219.994 197.836 220.021 197.473C220.048 197.111 220.16 196.76 220.349 196.45C220.917 195.682 222.773 196.316 222.773 196.316C222.735 195.659 222.945 195.01 223.361 194.5C224.029 193.745 226.954 195.782 226.954 195.782L228.564 193.859L229.913 191.828Z" fill="#FFBE9D"/>
<path d="M225.952 202.107C224.911 201.663 223.917 201.115 222.987 200.471C221.996 199.923 221.065 199.274 220.208 198.534C221.249 198.981 222.242 199.532 223.174 200.177C224.163 200.725 225.093 201.372 225.952 202.107Z" fill="#EB996E"/>
<path d="M228.11 199.522C227.141 199.141 226.218 198.653 225.358 198.066C224.439 197.579 223.577 196.993 222.787 196.316C223.757 196.694 224.68 197.183 225.538 197.772C226.457 198.259 227.319 198.846 228.11 199.522Z" fill="#EB996E"/>
<path d="M225.171 194.687C225.224 194.587 226.326 195.168 227.609 195.982C228.403 196.441 229.169 196.95 229.899 197.505C229.853 197.619 228.704 197.098 227.422 196.276C226.618 195.827 225.863 195.294 225.171 194.687Z" fill="#EB996E"/>
<path d="M238.983 177.743C238.927 177.752 238.871 177.752 238.816 177.743H238.321H236.425L229.452 177.796L206.444 177.85H204.767C204.52 177.826 204.272 177.869 204.047 177.975C203.823 178.081 203.631 178.245 203.492 178.451C202.958 179.403 202.437 180.343 201.929 181.269L198.964 186.612L193.935 195.648C192.505 198.2 191.337 200.27 190.515 201.733C190.121 202.401 189.8 202.975 189.573 203.376L189.32 203.796L189.226 203.937C189.226 203.937 189.226 203.877 189.286 203.776L189.513 203.336L190.402 201.666L193.741 195.528L198.71 186.452C199.645 184.749 200.633 182.959 201.648 181.109L203.218 178.27C203.389 178.016 203.625 177.812 203.9 177.678C204.176 177.545 204.482 177.486 204.788 177.509H206.464L229.472 177.556L236.445 177.616L238.341 177.649H238.836C238.889 177.672 238.939 177.704 238.983 177.743Z" fill="#263238"/>
<path d="M214.271 189.998C214.109 190.233 214.018 190.51 214.009 190.795C214 191.08 214.074 191.361 214.221 191.606C214.368 191.85 214.582 192.047 214.838 192.172C215.094 192.298 215.381 192.347 215.664 192.314C215.948 192.28 216.215 192.166 216.435 191.984C216.655 191.803 216.818 191.561 216.904 191.289C216.99 191.018 216.997 190.727 216.922 190.451C216.847 190.176 216.694 189.929 216.482 189.738C216.153 189.482 215.737 189.365 215.323 189.414C214.909 189.463 214.531 189.673 214.271 189.998Z" fill="white"/>
<g opacity="0.3">
<path d="M116.762 180.588C116.468 180.708 116.127 180.908 116.127 181.256C116.138 181.385 116.192 181.507 116.281 181.601C116.369 181.696 116.487 181.758 116.615 181.777C117.105 181.707 117.585 181.579 118.044 181.396C121.657 180.601 124.629 181.363 128.062 182.732L128.176 182.618C126.813 179.66 120.649 179.005 116.762 180.588Z" fill="black"/>
</g>
<path d="M302.838 316.166C302.838 316.26 242.429 316.34 167.928 316.34C93.4267 316.34 33.0176 316.233 33.0176 316.166C33.0176 316.1 93.4133 315.993 167.928 315.993C242.442 315.993 302.838 316.039 302.838 316.166Z" fill="#263238"/>
<path d="M98.4599 103.255C98.5734 103.369 120.753 95.7484 120.753 95.7484L112.205 76.1797L92.4824 83.7467L103.342 89.9846L98.4599 103.255Z" fill="#455A64"/>
<path d="M108.865 82.0703V55.4288C108.865 55.4288 139.46 49.832 161.507 50.166C183.553 50.4999 206.254 54.1131 206.254 54.1131V79.6926C206.254 79.6926 137.156 73.5215 108.865 82.0703Z" fill="#455A64"/>
<path d="M108.705 82.097L120.727 95.8618V79.6926C120.727 79.6926 110.675 80.8948 108.705 82.097Z" fill="#263238"/>
<path d="M108.865 55.4221C108.966 55.4221 109.006 61.433 108.966 68.7796C108.925 76.1262 108.805 82.137 108.712 82.137C108.618 82.137 108.572 76.1662 108.612 68.7796C108.652 61.3929 108.765 55.4221 108.865 55.4221Z" fill="#263238"/>
<path d="M216.607 101.211C216.493 101.325 194.313 93.7045 194.313 93.7045L202.842 74.1292L222.584 81.6828L211.718 87.9207L216.607 101.211Z" fill="#455A64"/>
<path d="M206.375 80.0532L194.353 93.818V78.8176C198.384 78.9556 202.4 79.3684 206.375 80.0532Z" fill="#263238"/>
<path d="M206.241 54.113C206.334 54.113 206.441 59.9169 206.475 67.0831C206.508 74.2494 206.475 80.0532 206.361 80.0532C206.248 80.0532 206.161 74.2494 206.127 67.0831C206.094 59.9169 206.141 54.113 206.241 54.113Z" fill="#263238"/>
<path d="M219.547 56.5374L221.297 58.5877L226.226 56.5374L224.783 54.3801L219.547 56.5374Z" fill="#455A64"/>
<path d="M217.29 46.7797C217.29 47.287 217.14 47.7828 216.858 48.2046C216.576 48.6263 216.175 48.955 215.707 49.1491C215.238 49.3432 214.722 49.394 214.225 49.2951C213.727 49.1961 213.27 48.9519 212.912 48.5932C212.553 48.2345 212.309 47.7775 212.21 47.2801C212.111 46.7826 212.162 46.2669 212.356 45.7983C212.55 45.3297 212.879 44.9291 213.3 44.6473C213.722 44.3655 214.218 44.2151 214.725 44.2151C215.405 44.2169 216.056 44.4876 216.537 44.9682C217.017 45.4488 217.288 46.1001 217.29 46.7797Z" fill="#FF725E"/>
<path d="M159.84 85.0355C159.838 85.2897 159.761 85.5377 159.619 85.7481C159.476 85.9585 159.274 86.1218 159.039 86.2172C158.803 86.3126 158.544 86.3359 158.296 86.284C158.047 86.2321 157.819 86.1074 157.641 85.9258C157.463 85.7442 157.343 85.5139 157.297 85.264C157.25 85.0142 157.279 84.7561 157.379 84.5225C157.479 84.289 157.647 84.0905 157.86 83.9524C158.073 83.8142 158.323 83.7425 158.577 83.7465C158.915 83.7518 159.237 83.8901 159.473 84.1315C159.71 84.3728 159.841 84.6977 159.84 85.0355Z" fill="#FF725E"/>
<path d="M100.098 65.7606C100.098 65.954 100.041 66.1431 99.9328 66.3037C99.8251 66.4643 99.672 66.5893 99.493 66.6627C99.3141 66.7361 99.1174 66.7546 98.9278 66.7159C98.7383 66.6771 98.5646 66.5829 98.4288 66.4452C98.293 66.3075 98.2012 66.1325 98.1651 65.9425C98.129 65.7525 98.1502 65.556 98.2261 65.3781C98.3019 65.2002 98.429 65.0488 98.5911 64.9433C98.7532 64.8378 98.943 64.7828 99.1364 64.7855C99.3927 64.789 99.6373 64.8933 99.8173 65.0758C99.9973 65.2583 100.098 65.5043 100.098 65.7606Z" fill="#FF725E"/>
<path d="M96.4785 55.0281L99.3504 55.2017L100.713 49.5515L98.028 49.6651L96.4785 55.0281Z" fill="#455A64"/>
<path d="M186.241 100.129L187.209 102.841L192.939 101.879L191.784 99.4548L186.241 100.129Z" fill="#FF725E"/>
<path d="M128.283 84.4812L126.513 86.752L130.393 91.0731L131.822 88.7957L128.283 84.4812Z" fill="#455A64"/>
<path d="M121.424 31.1382L128.203 38.0507L137.747 34.4442L138.127 36.8151L133.993 45.277L137.807 51.5951L137.486 53.4852L128.249 51.9291L122.786 57.9199L121.504 56.9515L120.375 49.331L111.76 44.8429L111.379 43.0998L120.055 40.7288L121.424 31.1382Z" fill="#FF725E"/>
<g opacity="0.3">
<path d="M121.424 31.1382L128.203 38.0507L137.747 34.4442L138.127 36.8151L133.993 45.277L137.807 51.5951L137.486 53.4852L128.249 51.9291L122.786 57.9199L121.504 56.9515L120.375 49.331L111.76 44.8429L111.379 43.0998L120.055 40.7288L121.424 31.1382Z" fill="black"/>
</g>
<path d="M121.424 29.1946L128.203 36.1137L137.747 34.4441L133.265 43.0329L137.807 51.595L128.249 49.9921L121.504 56.9514L120.081 47.3674L111.379 43.0997L120.055 38.7852L121.424 29.1946Z" fill="#FF725E"/>
<path d="M191.717 31.1382L184.932 38.0507L175.388 34.4442L175.007 36.8151L179.141 45.277L175.328 51.5951L175.648 53.4852L184.885 51.9291L190.348 57.9199L191.631 56.9515L192.759 49.331L201.375 44.8429L201.756 43.0998L193.08 40.7288L191.717 31.1382Z" fill="#FF725E"/>
<g opacity="0.3">
<path d="M191.717 31.1382L184.932 38.0507L175.388 34.4442L175.007 36.8151L179.141 45.277L175.328 51.5951L175.648 53.4852L184.885 51.9291L190.348 57.9199L191.631 56.9515L192.759 49.331L201.375 44.8429L201.756 43.0998L193.08 40.7288L191.717 31.1382Z" fill="black"/>
</g>
<path d="M191.717 29.1946L184.932 36.1137L175.388 34.4441L179.869 43.0329L175.328 51.595L184.885 49.9921L191.63 56.9514L193.053 47.3674L201.755 43.0997L193.08 38.7852L191.717 29.1946Z" fill="#FF725E"/>
<path d="M156.347 19.0029L161.99 30.0295L175.007 29.2615L174.566 32.2936L166.298 41.0494L168.535 50.2059L167.433 52.3899L156.754 46.9734L147.811 52.2096L146.616 50.5332L148.138 40.8023L139.336 32.0465L139.536 29.7824L151.024 30.1898L156.347 19.0029Z" fill="#FF725E"/>
<g opacity="0.3">
<path d="M156.347 19.0029L161.99 30.0295L175.007 29.2615L174.566 32.2936L166.298 41.0494L168.535 50.2059L167.433 52.3899L156.754 46.9734L147.811 52.2096L146.616 50.5332L148.138 40.8023L139.336 32.0465L139.536 29.7824L151.024 30.1898L156.347 19.0029Z" fill="black"/>
</g>
<path d="M157.082 16.6387L162.725 27.6586L175.007 29.2615L166.265 38.0373L168.536 50.206L157.496 44.6092L146.616 50.5332L148.533 38.2978L139.537 29.7824L151.765 27.8189L157.082 16.6387Z" fill="#FF725E"/>
<path d="M179.569 115.558L188.999 116.599C192.183 112.092 196.938 108.938 202.328 107.758C207.719 106.578 213.356 107.457 218.132 110.222C222.908 112.987 226.477 117.439 228.137 122.701C229.798 127.964 229.43 133.657 227.107 138.662C224.783 143.668 220.671 147.623 215.579 149.751C210.488 151.879 204.784 152.025 199.59 150.162C194.396 148.298 190.086 144.559 187.509 139.68C184.931 134.8 184.272 129.133 185.66 123.792L179.569 115.558Z" fill="#FAFAFA"/>
<path d="M179.569 115.557C179.936 116.052 181.846 118.576 185.747 123.752H185.606C185.611 123.741 185.618 123.731 185.627 123.724C185.636 123.716 185.647 123.71 185.659 123.707C185.67 123.704 185.682 123.703 185.694 123.705C185.706 123.707 185.717 123.712 185.727 123.719C185.742 123.728 185.755 123.742 185.762 123.759C185.769 123.776 185.771 123.794 185.767 123.812C184.811 127.559 184.861 131.492 185.914 135.213C186.223 136.329 186.632 137.416 187.136 138.459C187.403 138.993 187.657 139.541 187.944 140.082L188.939 141.665C192.117 146.271 196.924 149.5 202.39 150.701C205.416 151.366 208.549 151.38 211.58 150.741C214.776 150.046 217.779 148.655 220.376 146.667C223.096 144.601 225.283 141.915 226.754 138.833C228.277 135.698 229.028 132.245 228.945 128.761C228.847 125.428 228.003 122.16 226.474 119.197C225.035 116.389 222.997 113.931 220.503 111.998C216.01 108.525 210.357 106.909 204.708 107.483C202.321 107.769 199.99 108.413 197.795 109.393C194.302 111.007 191.293 113.508 189.066 116.646C189.059 116.659 189.048 116.669 189.035 116.675C189.022 116.681 189.007 116.683 188.993 116.679L179.569 115.557L189.013 116.512L188.932 116.553C191.152 113.372 194.176 110.837 197.695 109.206C199.901 108.189 202.251 107.518 204.661 107.216C210.387 106.609 216.127 108.231 220.69 111.744C223.227 113.7 225.3 116.193 226.761 119.044C228.322 122.049 229.183 125.369 229.279 128.755C229.367 132.293 228.606 135.802 227.061 138.986C225.564 142.116 223.34 144.844 220.576 146.941C217.937 148.956 214.886 150.365 211.64 151.068C208.555 151.717 205.366 151.697 202.29 151.008C196.766 149.79 191.911 146.517 188.712 141.852L187.71 140.249C187.423 139.701 187.169 139.14 186.895 138.599C186.393 137.542 185.986 136.442 185.68 135.313C184.632 131.552 184.605 127.581 185.6 123.806L185.76 123.866C185.748 123.885 185.728 123.899 185.706 123.905C185.684 123.912 185.66 123.909 185.64 123.899L179.569 115.557Z" fill="#263238"/>
<path d="M198.917 121.441C198.925 121.544 198.925 121.646 198.917 121.749C198.917 121.969 198.917 122.249 198.917 122.603C198.917 123.378 198.917 124.453 198.957 125.816C198.957 128.588 199.004 132.495 199.037 137.17L198.884 137.016H214.599C214.639 136.976 214.271 137.343 214.425 137.183V135.046C214.425 134.345 214.425 133.643 214.425 132.949V128.881C214.425 126.25 214.425 123.759 214.425 121.468L214.572 121.622L203.218 121.541L200.006 121.508H199.151H198.844H199.117H199.946L203.118 121.468L214.559 121.395H214.712V121.541C214.712 123.832 214.712 126.323 214.712 128.955V137.176C214.873 137.023 214.505 137.397 214.539 137.357H198.824H198.67V137.176C198.67 132.461 198.723 128.527 198.743 125.736C198.743 124.4 198.743 123.318 198.783 122.557C198.783 122.216 198.783 121.942 198.783 121.728C198.815 121.627 198.86 121.531 198.917 121.441Z" fill="#263238"/>
<path d="M212.936 124.04C213.163 124.22 211.052 127.265 208.214 130.845C207.653 131.56 207.099 132.241 206.584 132.849L206.25 133.256L205.876 132.916C203.419 130.705 201.756 129.008 201.903 128.835C202.05 128.661 203.98 130.064 206.524 132.174L205.81 132.241C206.297 131.573 206.831 130.905 207.399 130.197C210.231 126.618 212.715 123.866 212.936 124.04Z" fill="#FF725E"/>
<path d="M123.231 72.5063V59.9063H128.145C129.249 59.9063 130.191 60.0803 130.971 60.4283C131.751 60.7763 132.351 61.2803 132.771 61.9403C133.191 62.6003 133.401 63.3863 133.401 64.2983C133.401 65.2103 133.191 65.9963 132.771 66.6563C132.351 67.3043 131.751 67.8023 130.971 68.1503C130.191 68.4983 129.249 68.6723 128.145 68.6723H124.221L125.031 67.8443V72.5063H123.231ZM131.655 72.5063L128.451 67.9343H130.377L133.617 72.5063H131.655ZM125.031 68.0243L124.221 67.1423H128.091C129.243 67.1423 130.113 66.8963 130.701 66.4043C131.301 65.9003 131.601 65.1983 131.601 64.2983C131.601 63.3983 131.301 62.7023 130.701 62.2103C130.113 61.7183 129.243 61.4723 128.091 61.4723H124.221L125.031 60.5723V68.0243ZM140.305 72.6143C139.285 72.6143 138.385 72.4043 137.605 71.9843C136.837 71.5643 136.237 70.9883 135.805 70.2563C135.385 69.5243 135.175 68.6843 135.175 67.7363C135.175 66.7883 135.379 65.9483 135.787 65.2163C136.207 64.4843 136.777 63.9143 137.497 63.5063C138.229 63.0863 139.051 62.8763 139.963 62.8763C140.887 62.8763 141.703 63.0803 142.411 63.4883C143.119 63.8963 143.671 64.4723 144.067 65.2163C144.475 65.9483 144.679 66.8063 144.679 67.7903C144.679 67.8623 144.673 67.9463 144.661 68.0423C144.661 68.1383 144.655 68.2283 144.643 68.3123H136.525V67.0703H143.743L143.041 67.5023C143.053 66.8903 142.927 66.3443 142.663 65.8643C142.399 65.3843 142.033 65.0123 141.565 64.7483C141.109 64.4723 140.575 64.3343 139.963 64.3343C139.363 64.3343 138.829 64.4723 138.361 64.7483C137.893 65.0123 137.527 65.3903 137.263 65.8823C136.999 66.3623 136.867 66.9143 136.867 67.5383V67.8263C136.867 68.4623 137.011 69.0323 137.299 69.5363C137.599 70.0283 138.013 70.4123 138.541 70.6883C139.069 70.9643 139.675 71.1023 140.359 71.1023C140.923 71.1023 141.433 71.0063 141.889 70.8143C142.357 70.6223 142.765 70.3343 143.113 69.9503L144.067 71.0663C143.635 71.5703 143.095 71.9543 142.447 72.2183C141.811 72.4823 141.097 72.6143 140.305 72.6143ZM152.137 72.6143C151.345 72.6143 150.619 72.4343 149.959 72.0743C149.311 71.7023 148.789 71.1563 148.393 70.4363C148.009 69.7163 147.817 68.8163 147.817 67.7363C147.817 66.6563 148.003 65.7563 148.375 65.0363C148.759 64.3163 149.275 63.7763 149.923 63.4163C150.583 63.0563 151.321 62.8763 152.137 62.8763C153.073 62.8763 153.901 63.0803 154.621 63.4883C155.341 63.8963 155.911 64.4663 156.331 65.1983C156.751 65.9183 156.961 66.7643 156.961 67.7363C156.961 68.7083 156.751 69.5603 156.331 70.2923C155.911 71.0243 155.341 71.5943 154.621 72.0023C153.901 72.4103 153.073 72.6143 152.137 72.6143ZM147.079 75.9983V62.9663H148.735V65.5403L148.627 67.7543L148.807 69.9683V75.9983H147.079ZM151.993 71.1023C152.605 71.1023 153.151 70.9643 153.631 70.6883C154.123 70.4123 154.507 70.0223 154.783 69.5183C155.071 69.0023 155.215 68.4083 155.215 67.7363C155.215 67.0523 155.071 66.4643 154.783 65.9723C154.507 65.4683 154.123 65.0783 153.631 64.8023C153.151 64.5263 152.605 64.3883 151.993 64.3883C151.393 64.3883 150.847 64.5263 150.355 64.8023C149.875 65.0783 149.491 65.4683 149.203 65.9723C148.927 66.4643 148.789 67.0523 148.789 67.7363C148.789 68.4083 148.927 69.0023 149.203 69.5183C149.491 70.0223 149.875 70.4123 150.355 70.6883C150.847 70.9643 151.393 71.1023 151.993 71.1023ZM163.434 72.6143C162.474 72.6143 161.622 72.4043 160.878 71.9843C160.134 71.5643 159.546 70.9883 159.114 70.2563C158.682 69.5123 158.466 68.6723 158.466 67.7363C158.466 66.7883 158.682 65.9483 159.114 65.2163C159.546 64.4843 160.134 63.9143 160.878 63.5063C161.622 63.0863 162.474 62.8763 163.434 62.8763C164.382 62.8763 165.228 63.0863 165.972 63.5063C166.728 63.9143 167.316 64.4843 167.736 65.2163C168.168 65.9363 168.384 66.7763 168.384 67.7363C168.384 68.6843 168.168 69.5243 167.736 70.2563C167.316 70.9883 166.728 71.5643 165.972 71.9843C165.228 72.4043 164.382 72.6143 163.434 72.6143ZM163.434 71.1023C164.046 71.1023 164.592 70.9643 165.072 70.6883C165.564 70.4123 165.948 70.0223 166.224 69.5183C166.5 69.0023 166.638 68.4083 166.638 67.7363C166.638 67.0523 166.5 66.4643 166.224 65.9723C165.948 65.4683 165.564 65.0783 165.072 64.8023C164.592 64.5263 164.046 64.3883 163.434 64.3883C162.822 64.3883 162.276 64.5263 161.796 64.8023C161.316 65.0783 160.932 65.4683 160.644 65.9723C160.356 66.4643 160.212 67.0523 160.212 67.7363C160.212 68.4083 160.356 69.0023 160.644 69.5183C160.932 70.0223 161.316 70.4123 161.796 70.6883C162.276 70.9643 162.822 71.1023 163.434 71.1023ZM170.774 72.5063V62.9663H172.43V65.5583L172.268 64.9103C172.532 64.2503 172.976 63.7463 173.6 63.3983C174.224 63.0503 174.992 62.8763 175.904 62.8763V64.5503C175.832 64.5383 175.76 64.5323 175.688 64.5323C175.628 64.5323 175.568 64.5323 175.508 64.5323C174.584 64.5323 173.852 64.8083 173.312 65.3603C172.772 65.9123 172.502 66.7103 172.502 67.7543V72.5063H170.774ZM126.255 94.6143C125.295 94.6143 124.551 94.3563 124.023 93.8403C123.495 93.3243 123.231 92.5863 123.231 91.6263V82.8783H124.959V91.5543C124.959 92.0703 125.085 92.4663 125.337 92.7423C125.601 93.0183 125.973 93.1563 126.453 93.1563C126.993 93.1563 127.443 93.0063 127.803 92.7063L128.343 93.9483C128.079 94.1763 127.761 94.3443 127.389 94.4523C127.029 94.5603 126.651 94.6143 126.255 94.6143ZM121.611 86.3883V84.9663H127.695V86.3883H121.611ZM134.364 94.6143C133.344 94.6143 132.444 94.4043 131.664 93.9843C130.896 93.5643 130.296 92.9883 129.864 92.2563C129.444 91.5243 129.234 90.6843 129.234 89.7363C129.234 88.7883 129.438 87.9483 129.846 87.2163C130.266 86.4843 130.836 85.9143 131.556 85.5063C132.288 85.0863 133.11 84.8763 134.022 84.8763C134.946 84.8763 135.762 85.0803 136.47 85.4883C137.178 85.8963 137.73 86.4723 138.126 87.2163C138.534 87.9483 138.738 88.8063 138.738 89.7903C138.738 89.8623 138.732 89.9463 138.72 90.0423C138.72 90.1383 138.714 90.2283 138.702 90.3123H130.584V89.0703H137.802L137.1 89.5023C137.112 88.8903 136.986 88.3443 136.722 87.8643C136.458 87.3843 136.092 87.0123 135.624 86.7483C135.168 86.4723 134.634 86.3343 134.022 86.3343C133.422 86.3343 132.888 86.4723 132.42 86.7483C131.952 87.0123 131.586 87.3903 131.322 87.8823C131.058 88.3623 130.926 88.9143 130.926 89.5383V89.8263C130.926 90.4623 131.07 91.0323 131.358 91.5363C131.658 92.0283 132.072 92.4123 132.6 92.6883C133.128 92.9643 133.734 93.1023 134.418 93.1023C134.982 93.1023 135.492 93.0063 135.948 92.8143C136.416 92.6223 136.824 92.3343 137.172 91.9503L138.126 93.0663C137.694 93.5703 137.154 93.9543 136.506 94.2183C135.87 94.4823 135.156 94.6143 134.364 94.6143ZM145.08 94.6143C144.156 94.6143 143.328 94.4103 142.596 94.0023C141.876 93.5943 141.306 93.0243 140.886 92.2923C140.466 91.5603 140.256 90.7083 140.256 89.7363C140.256 88.7643 140.466 87.9183 140.886 87.1983C141.306 86.4663 141.876 85.8963 142.596 85.4883C143.328 85.0803 144.156 84.8763 145.08 84.8763C145.884 84.8763 146.61 85.0563 147.258 85.4163C147.906 85.7763 148.422 86.3163 148.806 87.0363C149.202 87.7563 149.4 88.6563 149.4 89.7363C149.4 90.8163 149.208 91.7163 148.824 92.4363C148.452 93.1563 147.942 93.7023 147.294 94.0743C146.646 94.4343 145.908 94.6143 145.08 94.6143ZM145.224 93.1023C145.824 93.1023 146.364 92.9643 146.844 92.6883C147.336 92.4123 147.72 92.0223 147.996 91.5183C148.284 91.0023 148.428 90.4083 148.428 89.7363C148.428 89.0523 148.284 88.4643 147.996 87.9723C147.72 87.4683 147.336 87.0783 146.844 86.8023C146.364 86.5263 145.824 86.3883 145.224 86.3883C144.612 86.3883 144.066 86.5263 143.586 86.8023C143.106 87.0783 142.722 87.4683 142.434 87.9723C142.146 88.4643 142.002 89.0523 142.002 89.7363C142.002 90.4083 142.146 91.0023 142.434 91.5183C142.722 92.0223 143.106 92.4123 143.586 92.6883C144.066 92.9643 144.612 93.1023 145.224 93.1023ZM148.482 94.5063V91.9323L148.59 89.7183L148.41 87.5043V81.1503H150.138V94.5063H148.482Z" fill="white"/>
</svg>
