<svg width="33" height="33" viewBox="0 0 33 33" fill="none" xmlns="http://www.w3.org/2000/svg">
<circle cx="16.5" cy="16.5" r="16.5" fill="#007FFF"/>
<path d="M23.1276 15.7576L13.4313 10.1606C13.2093 10.0323 12.9622 9.96875 12.7143 9.96875C12.4665 9.96875 12.2194 10.0325 11.9977 10.1607C11.5537 10.4166 11.2808 10.89 11.2808 11.4026V22.5979C11.2808 23.1103 11.5536 23.5834 11.9977 23.8396C12.2194 23.9678 12.4665 24.0312 12.7143 24.0312C12.9622 24.0312 13.2093 23.9678 13.4313 23.8396L23.1276 18.2412C23.571 17.9849 23.8441 17.5119 23.8441 16.9992C23.8441 16.4869 23.5711 16.0138 23.1276 15.7576Z" fill="white"/>
</svg>
