<svg width="33" height="33" viewBox="0 0 33 33" fill="none" xmlns="http://www.w3.org/2000/svg">
<path d="M21.1406 10.3125H11.8594C11.0086 10.3125 10.3125 11.0086 10.3125 11.8594V21.1406C10.3125 21.9914 11.0086 22.6875 11.8594 22.6875H21.1406C21.9914 22.6875 22.6875 21.9914 22.6875 21.1406V11.8594C22.6875 11.0086 21.9914 10.3125 21.1406 10.3125ZM16.5 0C7.38633 0 0 7.38633 0 16.5C0 25.6137 7.38633 33 16.5 33C25.6137 33 33 25.6137 33 16.5C33 7.38633 25.6137 0 16.5 0ZM16.5 29.9062C9.10723 29.9062 3.09375 23.8921 3.09375 16.5C3.09375 9.10787 9.10723 3.09375 16.5 3.09375C23.8928 3.09375 29.9062 9.10787 29.9062 16.5C29.9062 23.8921 23.8928 29.9062 16.5 29.9062Z" fill="#FF0000"/>
</svg>
